<svg xmlns="http://www.w3.org/2000/svg" viewBox="0 0 3831.36 2001.6"><defs><style>.a{fill:#fdfdfd;}.b{fill:#58c601;}.c{fill:#5e579a;}.d{fill:#0d292c;}.e{fill:#734444;}.f{fill:#1f9a00;}.g{fill:#ecf3f1;}.h{fill:#5e5799;}.i{fill:#eae8e8;}.j{fill:#f6fbfb;}.k{fill:#e9e7e7;}.l{fill:#a4a4a4;}.m{fill:#e7e6e6;}.n{fill:#a3a4a4;}.o{fill:#341212;}.p{fill:#5d5897;}.q{fill:#724343;}.r{fill:#341414;}.s{fill:#9fa0a0;}.t{fill:#949798;}.u{fill:#bec3c3;}.v{fill:#515454;}.w{fill:#6a787a;}.x{fill:#d8dcdc;}.y{fill:#209801;}.z{fill:#cacecf;}.aa{fill:#53bc04;}.ab{fill:#4fb606;}.ac{fill:#768c8e;}.ad{fill:#7c9395;}.ae{fill:#787e7f;}.af{fill:#40960f;}.ag{fill:#8d9596;}.ah{fill:#aaacad;}.ai{fill:#767b7a;}.aj{fill:#294245;}.ak{fill:#0f2b2e;}.al{fill:#e6e9e9;}.am{fill:#203739;}.an{fill:none;}</style></defs><ellipse class="a" cx="1915.68" cy="1000.8" rx="2709.18" ry="1415.34"/><path class="b" d="M1716.63,1646.88c-3.18.18-6.36.53-9.54.53q-149.23,0-298.48,0a22.89,22.89,0,0,0-2.87,0c-4.53.58-7.76-1.39-10.94-4.53-17.76-17.52-35.7-34.85-53.58-52.26-5-4.91-9.87-10.05-15.15-14.69-3.33-2.92-4.24-5.86-3.09-10.1,2.93-10.79,5.54-21.66,8.26-32.51q12-47.88,24-95.76c1.79-7.12,3.87-14.19,5.4-21.37s3.15-6.18-4.59-11.6q-15.33-10.73-30.64-21.46-42.76-30-85.53-60.08a23.06,23.06,0,0,1-2.22-2c1.41-2.71,3.92-1.57,5.86-1.58,39.66-.07,79.33,0,119-.1,5.39,0,11.33,1.68,16-1,4.27-2.47,7.46-6.89,10.94-10.63,5.87-6.32,11.74-12.66,17.33-19.23a70.23,70.23,0,0,0,7-10.29c3.62-6.25,5.6-12.88,3.37-20.18-.23-.77,0-1.69.12-3.45,12.52,10.88,19,23,15,39.35a56.71,56.71,0,0,1-5.45,14.27c-1.4,2.51-2.81,5-4.1,7.6-1.1,2.18-.19,3.42,2.48,3.58a17.65,17.65,0,0,0,1.92.05c3.18-.15,6.78.54,9.43-.72,2.92-1.38,2.24-5.71,3.73-8.49,1-1.87.92-4.4,3-5.62,2.2.46,1.07,2.06,1.27,3.05.31,1.55.25,3.18.44,4.77a23.8,23.8,0,0,0,.67,3.77c.86,2.93,7.72,4.61,9.74,2.32a3.46,3.46,0,0,0,.33-2.61c-1-4.7-2.14-9.35-3-14.06-2.69-14.53-2.62-29.3-3-44q-2.21-87.28-.47-174.61a413.65,413.65,0,0,1,27.2-139.56,259.23,259.23,0,0,1,22.28-45.59c1.36-2.17,2.59-4.41,3.84-6.64a3.1,3.1,0,0,0-.11-3.55c-1.28-1.83-2.59-3.65-3.74-5.56-5.28-8.76-5.18-17.58,0-26.33a75.05,75.05,0,0,1,4.84-7.13c3.08-4.09,6.35-8,9.41-12.12,5-6.63,9.91-13.29,9-22.9,7.38,3.57,8.71,9.34,9,15.58.08,1.88-.64,3.78-.72,5.69-.17,3.45,1.11,6.35,4.26,8a9.49,9.49,0,0,0,10.79-1,8.49,8.49,0,0,0,3.33-9.34c-.87-3.45-2.89-6.4-5-9.21-2.3-3.06-4.84-5.95-7.22-9-1.78-2.25-3.58-4.5-5.21-6.87-9.13-13.3-7.83-32.85,8.54-45,4.35-3.24,9.14-5.89,14.67-6.72a1.79,1.79,0,0,1,2.12,2.24c-.8,2.76-1.78,5.46-2.56,8.23-2.18,7.78-3.06,15.65-1.41,23.69a19.17,19.17,0,0,0,4.68,9.28,8.84,8.84,0,0,0,3,2.23c6.49,2.64,10.68-.84,9.63-7.88-.41-2.78-2.08-5.42-.86-8.37,2.5-.71,3.13,1.69,4.56,2.75s2.46,3,4.66,3.32c1.83-.47,2-2.31,2.38-3.64,7.81-24.1,18.93-46.76,30.21-69.35,2.71-5.43,5.87-10.65,8.4-16.16,6.46-14.1,15.47-26.47,25.51-38.13a45.82,45.82,0,0,0,8.11-13.95c17-44.52,30.78-90,44.25-135.71,13.16-44.58,35.33-84.18,69.87-116.06,27.14-25.05,59-39.91,95.83-44.19a185.11,185.11,0,0,1,45.91.52,34.59,34.59,0,0,1,6.52,1.48,79,79,0,0,0,21.63,3.8c19.6,1.07,37.5,7.52,54.59,16.55,27.06,14.28,49,34.53,67.55,58.65,19,24.79,33.35,52.19,44.5,81.3,2.62,6.83,5.78,13.51,7.07,20.81-4.64,1.66-7.84-1.2-11.21-3.56-7.28-11.41-10.3-24.69-16.11-36.76-22.65-47.08-52.3-87.9-100.12-112.51-14.91-7.68-30.64-12.86-47.55-13.87-6.4-.38-12.68-1.7-19-2.92-64.77-12.58-117.92,7.87-159.94,57.59-25.12,29.72-41.29,64.28-51.59,101.87q-17.37,63.39-40.81,124.88c-2.53,6.63-5.56,13-10.29,18.3-20.11,22.6-32,50-44.62,76.87-10.5,22.29-21.45,44.74-23.69,69.56-1.28,14.16-7.48,21.88-19.28,28.86-37.6,22.26-61.23,56.22-77.11,96.23-17,42.93-25.32,87.56-28.28,133.55-3.06,47.63-2.1,95.28-1,142.83.6,24.82-.58,49.84,3,74.64a245.91,245.91,0,0,0,5.79,27.16c1.73,6.61-.7,9.75-7.36,10.08-3.51.18-7,.16-10.55.16q-84.91,0-169.84,0c-3.12,0-6.34-.76-10,.88,17.72,13.26,35.74,25.36,53.39,38,13.53,9.67,27,19.42,41,28.49,7.43,4.84,9,10.25,6.85,18.59-11.83,46.16-23,92.48-35,138.6-2.57,9.91-1.26,17.19,6.68,23.76,18.74,15.53,35.37,33.31,52.46,50.57,5.52,5.58,11.84,6.71,19.16,6.7q96.43-.17,192.87-.06,50.39,0,100.76,0c4.44,0,9-.55,13.26,1.31C1726.3,1643.92,1720.92,1645.06,1716.63,1646.88Z" transform="translate(0.05 0.35)"/><path class="c" d="M1716.63,1646.88l7.2-7.54c1.75-3.59,5.21-3.23,8.31-3.46,4.14-.32,8.31-.14,12.47-.14q334.92,0,669.83.22c12.14,0,21.2-3.15,29.55-12.12,15.46-16.62,31.77-32.45,48.1-48.23,6.07-5.88,7.2-11.7,5.08-19.77-12.05-45.76-23.4-91.71-34.87-137.62-3.09-12.39-2.11-14.47,8.16-21.7,30.58-21.55,61.45-42.7,92.4-65-2.83-1.78-5.63-1-8.15-1q-88.29-.09-176.57,0c-3.52,0-7,.13-10.56-.11-9.31-.65-12.09-3.6-10.49-13,5.85-34.37,10.06-68.93,13.36-103.64,2.66-28,2.78-56.13,3.2-84.25.84-57-5-113.07-21.84-167.64-13.18-42.69-32.88-81.7-65.82-113.15-20.13-19.22-43.84-32.07-69.71-41-10.05-3.48-14.53-9.22-15.22-19.29-.89-13.15-4-25.9-8-38.42-2.12-6.7-4.79-13.25-9-19-19.21-26.54-34.1-55.57-47.15-85.4-14.36-32.81-25.75-66.82-35.38-101.36-1-3.62-2.74-7.33-.06-11l9.19,4.2c4.62,10.58,7.07,21.87,10.64,32.79,9.54,29.18,20,58,32.38,86.09,4,9.13,10,17.1,14.43,26,3.15,6.29,6.76,12.36,9.56,18.79a64.08,64.08,0,0,0,11.19,17.77c8.49,9.28,13,20.36,16.42,32.12,1,3.3,1.93,6.59,3.05,10.38,4.1-1.7,6.78-4.47,9.65-6.87,2.63-2.19,5-4.73,7.69-7.38,1.68,4,.45,6.91-.37,9.94-.73,2.68-.22,5.13,2.11,6.86,2.61,1.94,5.37,1.68,8.1.18a13.91,13.91,0,0,0,6.38-8.08c2.3-6.52,2.24-13.19,1.17-19.89a80.86,80.86,0,0,0-4.67-16.27c1.44-2.25,3-1.09,4.39-.7a39.76,39.76,0,0,1,20.93,14.37c7.49,9.69,8,26,1,36.08-3.66,5.23-7.83,10.1-11.75,15.14-2.56,3.29-5,6.61-5.94,10.82a9,9,0,0,0,4,9.94c3.2,2,6.54,2.47,9.94.36a8,8,0,0,0,4.12-7.11c0-2.55-.31-5.1-.38-7.65a16.72,16.72,0,0,1,5.48-12.82,2.65,2.65,0,0,1,2.92-.6c0,7.13,3,13.28,7.34,18.93q4.93,6.47,9.9,12.93c1.35,1.78,2.68,3.58,4,5.36,5.75,7.65,7.81,16.07,4.77,25.28-.93,2.84-.52,4.79,1.47,6.86,16.73,17.46,29.91,37.39,40.89,58.85a331.54,331.54,0,0,1,22.69,56.9c9.56,32.27,15.29,65.25,18.34,98.77a747.13,747.13,0,0,1,2.79,93.89c-1,29.7-2.41,59.4-6.52,88.9-1.58,11.38-2.62,22.85-4.16,34.24s-3.39,22.75-5.1,34.11c-.19,1.27-.45,2.52-.53,3.79s.55,2.76,1.93,2.82c4.79.2,9.58.18,14.38.12,1.88,0,2.62-1.53,3.23-3.06,1.46-3.65,1.07-7.56,1.39-11.34,2.34-.49,2.76,1.3,3.24,2.56a78.26,78.26,0,0,1,2.57,8.22,4.42,4.42,0,0,0,4.77,3.76h11c1.33-2.32.21-3.61-.51-5-2-4-4.25-7.88-6.06-12q-12.1-27.24,11.73-47c1.86,1.24.28,2.7.1,3.92a28.05,28.05,0,0,0,2.72,16.75,64.42,64.42,0,0,0,10.19,15c7.69,8.56,15.65,16.88,23.47,25.33,1.83,2,3.87,3.2,6.7,3,2.23-.14,4.47,0,6.71,0H2595.7c.87,2.82-1,3.36-2.13,4.19q-32.93,23.21-65.89,46.35l-49.45,34.72a26.92,26.92,0,0,1-2.33,1.68c-3.41,1.92-4,4.64-2.61,8.12a35.85,35.85,0,0,1,1.19,4.64q18.08,72,36.14,144.09c.39,1.55.68,3.13,1.17,4.64a5.3,5.3,0,0,1-1.46,6.09c-1.42,1.29-2.72,2.7-4.1,4-21.77,21.2-43.63,42.3-65.22,63.68-4.2,4.16-8.42,6-14.36,5.89-16.3-.34-32.62-.12-48.94-.12q-324.35,0-648.7,0C1724.88,1647.51,1720.7,1648.12,1716.63,1646.88Z" transform="translate(0.05 0.35)"/><path class="d" d="M2101.5,533.17c1.78,6.45,3.47,12.92,5.36,19.34,8.58,29.1,18.66,57.7,29.83,85.89,5.88,14.85,12.34,29.48,21.12,42.94a158,158,0,0,1,12.38,23.79,62.2,62.2,0,0,0,11.19,17.74c8.61,9.27,12.78,20.5,16.24,32.18,4,13.5,6,27.4,7.5,41.36.35,3.3,1.47,5,4.8,6A238.06,238.06,0,0,1,2243.67,816a180.15,180.15,0,0,1,63.47,51.47c15.33,19.53,26.94,41,36.65,63.76,11.73,27.47,18.63,56.3,24.29,85.45,2.12,10.93,2.94,22.11,4.45,33.17,5.82,42.62,3.84,85.46,3.55,128.25-2.47,12.58-.89,25.49-3.21,38.13-1.2,6.54-1.36,13.33-1.89,20-1.62,20.06-4.84,39.88-7.7,59.76-1.09,7.58-2.11,15.15-3.83,22.62a23.21,23.21,0,0,0-.36,5.72,2.89,2.89,0,0,0,2.93,3.11q4.3.19,8.62.19h199.45c.9,2.48-.83,3.07-2.05,3.93q-31,21.78-62,43.54c-13.08,9.17-26.12,18.42-39.33,27.41-3.49,2.38-4.34,4.91-3.28,8.89,4,15.1,7.9,30.24,11.71,45.4,3.34,13.3,6.47,26.64,9.79,39.94,5.49,22,10.85,44,16.77,65.81,1.31,4.86.16,7.7-3.12,10.9q-31.21,30.52-62.19,61.29c-2.92,2.89-6,4.5-10.19,4.17-3.18-.25-6.39,0-9.59,0q-340.18,0-680.37,0c-4.15,0-8.29.31-12.43.48-4.15-.14-8.3-.41-12.45-.41q-148.71,0-297.43-.05c-13.14,0-9.67,1.38-19.17-7.82q-27.57-26.7-55-53.47a47.06,47.06,0,0,0-3.44-3.34c-4-3.12-4.84-6.76-3.49-11.81,4.69-17.58,8.88-35.28,13.31-52.93q12.12-48.3,24.3-96.58a33.06,33.06,0,0,1,.9-3.72c1-2.6-.12-4.13-2.2-5.57q-14.58-10.11-29.06-20.35-36.43-25.69-72.84-51.42c-1.19-.84-2.24-1.88-4.68-3.95,18.59-.75,35.38-.29,52.16-.37,17-.09,33.91,0,50.86,0h101.11c1.86-2.62.6-4.4,0-6.08-5.13-14-6.48-28.6-7.46-43.26-.51-7.65-.33-15.34-.63-23-2-51.44-1.32-102.91-1.31-154.38,0-15.66,1.32-31.23,2.87-46.82,1.11-11.13,2.47-22.2,4.4-33.2a390.3,390.3,0,0,1,19.73-72.9,342.9,342.9,0,0,1,21.47-44.9c10.53-18.75,25.25-33.63,41.6-47.17a193.55,193.55,0,0,1,30.34-20c2.75-1.52,4.43-3.11,4.34-6.58-.47-17.28,4.71-33.37,10.64-49.29,8.73-23.41,20.1-45.58,31.13-67.93,8-16.16,17.46-31.2,29.45-44.65a39.26,39.26,0,0,0,7.14-12.33c14.19-36.66,26.34-74,37.42-111.68,3.42-11.64,6.6-23.36,10.41-34.87,10.43-31.57,25.84-60.53,47.31-86,20.8-24.66,46-43.29,77-53.31a184.47,184.47,0,0,1,34.6-7.19c12.52-1.54,24.85-1,37.25.45a50.36,50.36,0,0,1,7.5,1.43,140.3,140.3,0,0,0,27.33,4.39c11.26.75,22.06,3.79,32.42,8,26.18,10.67,48.34,27,67.33,48,17.09,18.86,30.82,39.91,42.29,62.51a350,350,0,0,1,16.25,37.84C2098.62,527.53,2099.33,530.68,2101.5,533.17Z" transform="translate(0.05 0.35)"/><path class="c" d="M1607.11,863.35c4.8-1.82,5.23-1.85,7,1.45A115.62,115.62,0,0,0,1639.53,897c2.36,2.12,5,3.95,7.36,6.09,1.59,1.43,4.89,2.62,4,4.75-1.07,2.58-4.43,1-6.79,1.18-1.86.16-3.49-1.82-5.54-.62-.16,2.8,1.88,4.54,3.25,6.58,12.09,18.09,23.07,36.81,31.4,56.93,3.66,8.84,6.49,18,9.53,27.09.68,2,1.12,4.29-.06,6.43-1.94-1-2.26-2.91-3-4.65-8.53-20.79-19.24-40.31-33.43-57.83-4.88-6-11.1-10.51-17.14-15.22a2,2,0,0,0-1.78-.19,1.91,1.91,0,0,0-.7,2.45c2.86,8.81,5.57,17.66,8.69,26.37,6.69,18.66,14.25,37,23.76,54.39,3,5.53,6.34,10.88,10.12,17.3-4.49-1.25-6.45-4.24-8.9-6.41-2.87-2.55-5.53-5.32-8.25-8-2.5-2.48-5-5-7.41-7.52s-4.88-5.08-7.14-7.77c-2.46-2.93-4.79-6-7-9.09-2.06-2.85-3.93-5.82-5.9-8.74s-4-5.77-5.88-8.73-3.72-6-5.42-9c-1.86-3.35-3.54-6.8-5.31-10.2-1.61-3.08-3.25-6.16-4.83-9.16-3.4.69-2.2,3.16-2.06,4.62,1.71,17.53,3.84,35,13.94,50.17.51.77.92,1.81-.18,2.46a2.2,2.2,0,0,1-1.76.19c-11.54-5.51-23.28-10.68-32.35-20.17a34.54,34.54,0,0,0-3.59-3.13,1.89,1.89,0,0,0-2.86,1.35c-.8,6.56,2.2,11.83,6.07,16.61,6.34,7.84,14.49,13.41,23.58,17.63a180.3,180.3,0,0,0,25,9.63c2.29.67,4.5,1.59,7.26,2.58-5.38,4.51-11.66,5-17.06,7.67,6.34,7.12,19.21,12.83,33.72,15-.38,2.33-2.49,2.52-3.95,2.9a76.94,76.94,0,0,1-36.94.77c-2.45-.54-4.94-.94-8.4-1.59,7.94,8.72,17.53,12.39,27.47,15.67,10.2,3.37,20.72,3.08,31.14,3.27.71,2.48-1.06,2.92-2.38,3.64a85.78,85.78,0,0,1-19.72,7.29c-2.55.66-2.94,2.06-1.26,4.07,1,1.23,2.14,2.39,3.26,3.52,16.38,16.69,30.58,35.19,44.8,53.68,1.93,2.52,3.74,5.13,5.57,7.66-1.42,2-2.23.32-3-.27-12-9.5-23.92-19.17-36.88-27.41a138.4,138.4,0,0,0-17.75-9.44c-2-.89-3.92-2.07-6.94-1.23,3.48,9.4,9.62,17,15.44,24.74a113.28,113.28,0,0,0,21.19,21.39c-7.24-1.07-11.93-3.9-17-5.49-4.81-1.51-9-4.58-14.33-5.26,2,3.64,2,3.58,5.14,6,2.28,1.74,4.39,3.72,6.56,5.6s5.09,2.8,6.25,5.65c-.24,1.37-1.27,1.28-2.08,1-13.15-4-26.66-5.94-40.29-7.69-9.9-1.28-19.75-1.13-29.63-1.5-8.07-.3-15.83,1.9-23.8,2.36a10.5,10.5,0,0,0-6.13,3c2.61.21,5.24.3,7.83.65,2.84.37,5.64,1.15,8.48,1.45,8.25.86,16.52,1.53,24.77,2.34s16.48,1.69,24.72,2.61c.45,0,.9.8,1.19,1.31s0,1.15-.87,1.23c-15.59,1.47-30.84,4.83-46,8.39-4.24,1-8.81,1.37-12.72,4.11,2.56,2.32,5.38,1.27,7.74.75,5.07-1.12,10.17-1,15.26-1.32,15-1,29.91-2.2,44.87-3.32,1-.07,1.91-.17,2.87-.18,23.35-.26,46.7-1,70.05-.25a37.93,37.93,0,0,1,6.65.74c3.48.74,5.47,2.93,6,6.56.7,4.71,1.62,9.39,2.46,14.12,2.6-.73,2.86-2.74,3.34-4.51a39.2,39.2,0,0,1,5.77-13.07c3.34-4.62,7-5.11,11.21-1.24a25.21,25.21,0,0,1,8.08,15.87c.28,2.17.27,4.38.41,6.73,3.32-.21,4.51-2.75,6.14-4.52,3.9-4.23,7.62-8.61,11.39-13a9.84,9.84,0,0,1,8.36-3.79c10.53.53,21.1-.61,31.6,1.15a47.62,47.62,0,0,0,7.66.27c17.28,0,34.56-.17,51.83.18,10.59.21,21.07-1,31.55-1.89,9.81-.87,19.49-3.15,29.26-4.62,11.66-1.76,23.35-3.33,35-5,7.26-1,14.55-1.83,21.78-3,5.67-.94,11.41-1.08,17.11-2,9.11-1.46,18.41-1.78,27.64-2.47,6-.45,12.11-.26,18.15-1.37a37,37,0,0,1,18,1.51c14.23,4.56,27.11,11.39,37,23,12,14.13,8.84,27.78.61,40.54a8.25,8.25,0,0,1-3.72,2.88c-8.13,3.23-16.38,5.44-25.12,2.24-2.63-1-3.9-2.28-3.16-5,1.4-5.06.8-10.17.91-15.26a28.32,28.32,0,0,0-3.63-13.74c-2-3.8-4.89-4.92-8.82-3.47a33.67,33.67,0,0,0-10.69,6.26c-11.39,10-20.94,21.49-27.51,35.29-.82,1.73-1.8,3.38-2.73,5-.46.83-1,1.66-2.13,1.15a2.41,2.41,0,0,1-1.24-1.35c-.84-3.4-2-6.81-2.22-10.26-.48-7-1.1-14.06,1.6-20.85.44-1.11,1.13-2.35.26-3.61-1.45-.33-2.38.59-3.3,1.43a349.15,349.15,0,0,1-69.56,49,206.9,206.9,0,0,1-47.09,18.68c-9.21,2.37-18.81,3.31-28.29,4.49-7,.88-14-.66-21.27-2.1,1.17-2.21,3.2-2.59,5.17-3.12a236.34,236.34,0,0,0,48.91-19.29,80.93,80.93,0,0,0,22.62-17.52,34.29,34.29,0,0,0,2.51-2.9c1.49-2,3.67-4.3,2.77-6.79-1.12-3.14-4.5-1.79-6.75-1.55-13.64,1.44-27.26,3.22-40.05,8.62a104.55,104.55,0,0,0-9.27,5c-1.53.83-2.55,3.31-4.8,1.8-1.46-1-1.42-2.78-1.43-4.37,0-5.07-.78-10.19,2.15-16.19-8.09,3-12.21,8.75-17.5,12.93a108.91,108.91,0,0,0-15,14.75,118.77,118.77,0,0,0-12.46,17.28c-8.45-6-12.25-14.07-13.76-24.11-8.36,5.51-8.9,13.54-9.54,21.84-8.49-1.11-12.43-7.44-16.87-13.16-5.82,12-7.53,22.69-6.59,41.12-2.49-.51-3.62-2.49-4.68-4.44-3.55-6.53-6.13-13.32-6-20.93.12-6.89,0-13.79-.48-20.78-3.28,5.88-5,12.24-6.93,18.52-.78,2.56-.54,6.57-3.73,6.51-2.59,0-2.35-4.15-3.07-6.46a59.11,59.11,0,0,1-3-19.79c.17-4.77,0-9.56,0-14.39-7.38,3.16-16.22,18.09-19.76,33.17-6.52-3.95-7.91-7.47-9.45-24-2-.45-2.91,1-3.84,2.2q-20.37,26.6-40.69,53.23c-.94,1.24-1.72,2.71-3.61,3.16-2-.79-1.24-2.67-.91-3.88,3.54-13.27,5.81-26.78,8.28-40.26,1.35-7.32,1.31-14.63,1-22-.18-4.89-3.25-6.54-8-4.53a114.13,114.13,0,0,0-16.85,9.11c-15.62,10-30.43,21.14-45.2,32.32a59.35,59.35,0,0,0-6.44,5.74c-6.1,6.27-6.16,14-.29,20.45a35.66,35.66,0,0,0,10.64,8.06c9.8,4.9,20.21,7.78,30.9,9.88a20,20,0,0,1,2.72.77c.22.08.39.42.51.68.32.75.11,1.36-.64,1.53-6.51,1.51-13,2.91-19.54,4.48-9.75,2.37-19.66,1.94-29.56,1.94-8.36,0-15.69-2.44-21.69-8.45-1.07-1.07-2-2.54-4.43-2.35-.15,3.18,2.89,5.38,2.64,8.68-.34,4.37-1.07,5.8-5.56,5.82-9.91,0-19.82-.15-29.73-.24-12.27-11.57-14.51-27.09-16.7-42.59-.26-1.82.27-4.23,2.47-4.65s3.31,1.6,4.22,3.24c2.94,5.3,4.73,11.22,8.42,16.1,2,2.67,3.44,5.91,7.4,8.05a75,75,0,0,0-4.21-15.2c-14.92-34.92-20.33-71.71-21.12-109.33-.39-18.84-.07-37.69-.06-56.54a66.83,66.83,0,0,1,.22-8.61c.32-2.47.12-5.88,3.05-6.4,3.18-.56,3.47,3.06,4.54,5.18,1.71,3.4,2.82,7.11,5.6,10.62,2.21-14.95-1.9-29-3-43.19-2.25-30-3.06-59.9,3.9-89.41,1.27-5.36.9-13.51,11.15-12.07,3.25.45,2.84-4.35,3.18-7,1.18-9.51,1-19.49,4.73-28.27,13.64-32.36,30.09-62.85,61.46-82l-.15.12A8,8,0,0,1,1607.11,863.35Z" transform="translate(0.05 0.35)"/><path class="c" d="M1694.77,677.08c-.06-4.64,2.16-8.63,3.77-12.77,14.72-37.82,27-76.44,38.54-115.34,4.71-15.89,8.87-32,15.27-47.34,11.58-27.81,27.06-52.84,49.81-73a118.28,118.28,0,0,1,63.37-29.4c11.38-1.58,23-.82,34.52-.28,3.3.16,6.08,1.82,8.89,3.35a66.94,66.94,0,0,1,21.41,18.91,122.23,122.23,0,0,1,21.81,48.54c1.52,7.09,3.2,14.14,5.22,21.12.81-28.93-6.1-56.45-16-83.34,2.93-1.67,5.29-.62,7.73.15,17.08,5.33,31.83,14.64,45.15,26.41,27.16,24,45.61,53.95,59.7,87,7.42,17.38,12.95,35.34,18.52,53.33,9.94,32,21.22,63.6,34.83,94.29,1,2.34,2.27,4.61,2.34,7.25-4.65.15-6.49-3.67-8.78-6.55-36-45.35-82.84-71.37-140.27-77.35-45.81-4.76-91-.13-135.32,12.59-45.95,13.19-86.55,35.68-121.64,68.15C1701.22,675.06,1699,678.27,1694.77,677.08Z" transform="translate(0.05 0.35)"/><path class="b" d="M2132.84,966.81c-3.94-8.95-5-18.36-4.38-28,.17-2.53.1-5.28,1.08-7.52,4.87-11.16,6.28-23.29,10.13-34.76a236.57,236.57,0,0,1,26.54-54.83c.7-1.06,1.31-2.19,2.07-3.21,4.47-6.05,7.13-6.89,14.79-4.74,1.22.34,2.45.66,3.68,1,27.34,9.51,49.3,26.3,67.18,48.88a51.73,51.73,0,0,1,9.67,18.47c4.22,15,9.61,29.7,14.39,44.34,3,.24,2.77-1.72,3.2-3,.85-2.67.63-6.73,3.81-7.12,4-.5,5.83,3.47,7.21,6.63a320.74,320.74,0,0,1,21.19,67.51,547.57,547.57,0,0,1,10.17,97.93c.64,55.32-1.62,110.4-9.93,165.12-2.5,16.45-8.58,32-13,48a8.59,8.59,0,0,1-4.68,5.77l-36.77,0c-4-1.28-4.52-5-5.63-8.17-5.47-15.75-15.62-27.83-29-37.36-5.37-4.53-10.71-9.1-16.13-13.57a102.91,102.91,0,0,0-15.09-10c-.31,4.65,2.27,7.26,3.51,10.25,1.34,3.24,2.9,6.39,4.41,9.56,1.38,2.88,2.82,5.73,4.21,8.6,1.53,3.16,3.06,6.32,4.55,9.51s2.81,6.2,4.76,10.51c-8-2.32-13.7-6.24-19.61-9.71a148.16,148.16,0,0,1-17.87-12.87c-5.44-4.37-9.74-9.87-16.07-16.69,2.39,12.17,2.64,21.9-.2,31.5-5,.3-5.38-3.76-6.35-7-1.59-5.2-3.06-10.41-5.16-15.45-5.67-13.61-15.16-22.66-29.8-26-3-.67-7.72-.56-7.88-4.09-.19-4.14,4.91-4.07,7.89-5.54,8.91-4.39,18-3.37,27.14-.82s18.15,3.83,27.37.7c4.36-1.49,8,.46,11.82,2.38,13.88,7,27.13,15.28,42.11,22.32-.39-11.55-.1-22,.33-32.47s1.21-11.19,11.12-7.34c2.34.91,4.44,2.36,7.78,3.68a32,32,0,0,0-10.85-14.94c-2.24-1.72-5.22-3.76-3.92-6.92,1.37-3.35,4.83-2.58,7.56-1.61,3.82,1.36,7.49.65,12.88-.27-6.72-5-12.53-9-19.23-11.83a211,211,0,0,0-38.42-11.77c-2.11-.45-5.08,0-5.12-3s2.55-4.27,5.3-4.46c4.78-.33,9.48-1.36,14.31-1.28a4.45,4.45,0,0,0,4.11-2.1c1.1-2.18-.79-3.52-2.14-4.74-9.34-8.42-21-11.89-32.71-15.28-3.63-1.05-10.18-.12-9.7-5.29.51-5.44,6.87-4.67,11.19-4.64,16.61.13,33.24-.92,51.12.94a109.42,109.42,0,0,0-29.95-18.32,46.21,46.21,0,0,1-7-3.12c-2.05-1.3-5.19-2.3-4.43-5.39.59-2.42,3.52-2.33,5.67-2.84,16.61-3.93,33.05-1.08,49.46,1.46,5,.77,9.89,2.32,16,.57-7.27-12.26-18.5-18.64-30.51-23.81-10.67-4.6-22.17-6-33.55-7.83-2.7-.42-6.64-.05-6.94-3.6-.29-3.3,3.4-4.33,6-5.19,19-6.12,37.28-13.55,53-26.17a55.47,55.47,0,0,0,5.82-5,1.78,1.78,0,0,0,.39-2c-15.41,2.39-30.26,7.47-45.62,10.21-2.52.45-5,1.12-7.56,1.34-7.33.62-8.73-.93-5.17-7.19,3.19-5.61,3.71-8.87-3.46-11.35-5.66-2-4.83-6-.94-9.54,20.94-19.07,25.32-44.23,26.12-70.72.18-5.85-2.33-9.09-8.52-8.9-2.56.08-5.1.43-7.64.61-7.61.52-9.87-1.71-8.88-9.47,1.52-11.84,5.81-22.89,10.18-33.91.91-2.27,2.53-4.46,1.85-7.36-4,.65-6.67,3.74-10.22,5.07-6.84,2.59-9.37,1-10.1-6.36-.44-4.52,1.29-8.79,1.45-14.11-9.91,4.54-16.07,11.76-19.73,21.15s-6,18.84-5.68,29c.13,4,1.17,9.24-3.41,11.15s-7.22-2.73-10-5.68c-.65-.68-1.31-1.39-3.38-1a82.8,82.8,0,0,0-6.22,24.15C2138.42,961.66,2138.87,966.46,2132.84,966.81Z" transform="translate(0.05 0.35)"/><path class="b" d="M1694.77,677.08c2.55-.88,4-3.09,5.85-4.83,24.76-23.64,53-42,84.33-55.73a331.3,331.3,0,0,1,83.45-24.12,327.25,327.25,0,0,1,41-4c6.06-.17,12.14-1.18,18.17-1,13.07.5,26.13,1.13,39.16,2.76a217.72,217.72,0,0,1,49.08,12.33,191.83,191.83,0,0,1,53.69,31.1,216.44,216.44,0,0,1,35.85,37.18c1.35,1.77,2.91,3.38,4.38,5.06,4.56,7.64,9.06,15.31,13.69,22.9a192,192,0,0,1,12.44,24.63c1.37,3.2,3.11,6.25,4.69,9.36.77,1.19.52,2.82,1.67,3.84l-.08-.17c12.31,24.25,20.52,49.42,15.52,77.06-4.31,23.81-8.45,47.75-21.29,69l.09-.16c-1.27,1.17-1,3-1.9,4.32-2,3.62-4,7.26-6,10.85-.92,1.63-1.64,3.49-3.77,4l.13.11c.36-6.16,3.43-11.56,5-17.38a351,351,0,0,0,10.7-56.34c.91-8.59,1.55-17.15,1.73-25.78a43.66,43.66,0,0,0-1.74-13.22c-10.79-36.86-27.07-71-51-101.18-18.3-23.14-40.5-41.65-67-54.63a184.85,184.85,0,0,0-49.06-15.66,262.6,262.6,0,0,0-63-3.2c-20.67,1.31-41.23,3.69-61.56,8.27a319.16,319.16,0,0,0-77.24,27.82,270.7,270.7,0,0,0-74,55.54,118,118,0,0,0-18.59,25.45c-3.43,6.48-7.52,12.61-11.36,18.88a620.82,620.82,0,0,0-29.88,55.65c-8.64,18-8,35.77-1.28,53.86a123.48,123.48,0,0,0,10.67,22.46,23.79,23.79,0,0,1,1.27,3.42c-2.92-1-4.07-2.92-5.18-4.49-7.4-10.43-14.13-21.19-18.17-33.52a65,65,0,0,1-.54-40.43,281.22,281.22,0,0,1,14.79-38.39c8.46-17.87,17.13-35.66,26.19-53.24,5.89-11.42,14.37-21.09,22.81-30.71,1.67-1.91,3.15-4,4.72-6q.88-.9,1.74-1.83Z" transform="translate(0.05 0.35)"/><path class="e" d="M1858,717.32c-.2,2.22.13,4.66-.69,6.61-2.12,5.05.05,8.78,3.23,12.11,5.74,6,11.35,12.21,17.69,17.53a243.68,243.68,0,0,0,28.41,21,48.35,48.35,0,0,0,4.93,2.92c4.32,2,8.59,2.1,12.71-.68,6.61-4.46,13.21-9,19.91-13.3,1.54-1,2.84-2.68,5.21-2.47,4.46,8.46,1.79,16-3.47,22.91-2.3,3-5.37,5.47-8,8.21a11.05,11.05,0,0,1-8.46,3.76,17.52,17.52,0,0,0-5.62,1,20.11,20.11,0,0,1-12.23.11c-6.33-1.87-12.54-1.39-18.81.59-5.46,1.73-11,3-16.61,4.41-1.87.47-3.37,1.32-6.53,3.51h14.2q18.69,0,37.39,0c2.23,0,4.47.08,6.69.27a3,3,0,0,1,2.82,3.24,19,19,0,0,1-.64,5.64c-.84,2.73-2.17,5.31-3.17,8a5.1,5.1,0,0,1-5,3.74q-13.89.09-27.8,0c-2.31,0-4.27-1.14-6.3-2.11-1.28-.61-2.15-2.52-4-1.5-.23,1.89,1.37,2.79,2,4.17,2.53,5.62,6.62,8.3,12.93,7.43,5.1-.71,9.4,1.17,13,4.73a12.1,12.1,0,0,0,2.1,2c9.23,5.46,9.72,14,8.21,23.21a31.26,31.26,0,0,0-.54,5.7c.07,4-1.42,7.49-3.23,10.9-2.51,4.73-3.29,4.83-9.16,4.19a135.41,135.41,0,0,0-16.23-.82c-8,.08-15-1.53-21-7.35-5.26-5.08-11.23-9.41-16.86-14.11-9.54-8-19-16-28.62-23.92-7.15-5.85-14.54-11.41-21.73-17.21-1.46-1.17-3.21-2.68-3.6-4.33-2.07-8.63-5.55-17.09-4.33-26.23a89.94,89.94,0,0,1,2.41-11.19c.7-2.59,3.25-3.39,5.22-1.7,4.35,3.75,8.81,7.38,11.82,12.44,1.61,2.7,3.58,5.18,5.43,7.84,2.15-1.64.48-2.94.15-4.17-2.94-11.07-6.32-22-8.85-33.19-1.82-8-3.19-16.27-2.89-24.62-2.31-9.47-.41-18.91,1-28.13,1.4-9,6.75-10.66,14.23-5.54a61.38,61.38,0,0,0,23.42,10.1C1852.14,713.7,1855.64,714.35,1858,717.32Z" transform="translate(0.05 0.35)"/><path class="f" d="M2132.84,966.81c3.51-1.76,3.49-5,3.5-8.26,0-10.1,3.67-19.31,7.11-28.56a8.87,8.87,0,0,1,1-1.63,1.87,1.87,0,0,1,3.16,0c2,3.29,3.57,6.81,6.7,9.25,1,.79,2,1.77,3.33,1.43s1.66-1.77,1.69-3.05c.07-2.87.22-5.76,0-8.63-.63-11.15,2.7-21.53,7-31.45,4-9.3,11.5-15.89,20.59-20.45a3.71,3.71,0,0,1,2.73-.21c1.55.62.87,2,.7,3.22-.75,5.34-3,10.46-2.19,16a18.69,18.69,0,0,0,.34,2.84,2.09,2.09,0,0,0,3,1.46c4.23-1.55,7.95-4,11.67-6.53a39.06,39.06,0,0,1,5.75-3.3c1-.44,1.69.58,1.92,1.56.39,1.7-.66,3.05-1.22,4.52-3,8-6.28,16-9,24.19-1.9,5.72-3.09,11.67-4.53,17.53a11.84,11.84,0,0,0-.14,2.86c0,2.8,1.64,4.43,4.21,3.57,5.64-1.87,11.37-1.25,17.1-1.19,1.27,0,2.76.49,3,1.89.64,3.7,3,7.19,1.59,11.15-1,2.78-.91,5.65-1,8.52-.32,19.3-5.73,36.92-17,52.72a43.89,43.89,0,0,1-11.57,11.25,2.12,2.12,0,0,0,.58,3.77c4,1,8.07,1.72,11.93,3.75-.15,6.34-6.1,9.65-7.6,15.47,14.9-2.06,29.26-6,43.73-9.4,6.18-1.45,12.27-3.29,18.43-4.81a3,3,0,0,1,2.56.71,2.64,2.64,0,0,1-.17,2.56,80.27,80.27,0,0,1-8.78,8.81,151.32,151.32,0,0,1-46.23,24.59c-5,1.66-10.47,2.42-16.29,6.71,7.14.23,12.57,1.46,18.05,2.17a91.63,91.63,0,0,1,45.27,19c5.12,4,8.42,9.52,12.21,14.62.71,1-.35,2.73-1.64,2.78-1.59.06-3.32.37-4.75-.13-3.69-1.29-7.69-.83-11.25-1.84-8.72-2.45-17.76-1-26.54-3.08-5.14-1.21-10.93-.88-16.19.09a100.62,100.62,0,0,1-13.21,1.43c-.56,2.44,1.36,2.72,2.56,3.28,5.78,2.69,11.61,5.28,17.45,7.85,6.49,2.85,12,7.24,17.84,11.14a17.37,17.37,0,0,1,6.52,7.22c-1.91,1.84-4.31,1.42-6.13.74-4.66-1.75-9.43-1.55-14.2-1.56-13.11,0-26.22,0-39.33.08-2.41,0-5.26-.64-6.78,2.9,4.37,1,8.71,1.67,12.88,2.95,9.14,2.8,18.23,5.78,26.21,11.35a35.88,35.88,0,0,1,8.87,8.64,5.36,5.36,0,0,1,.91,3.53c-.23,1.69-2,1.35-3.11,1.26-7.73-.55-15.22,1.07-22.72,2.51a1.85,1.85,0,0,0-1.55,2.08c.07.4.87.91,1.38,1,15.36,1.64,29.93,6.32,43.9,12.53,7.74,3.44,15.18,8,21.3,15.37-8.61,3.36-16.53-1.37-24.39-.42-.19,3.16,2.09,4,3.89,5.22,7.06,4.6,11,11.39,13.3,19.22.23.78-.25,1.77-.48,3.2-3-1.91-5.66-3.6-8.3-5.32a30.85,30.85,0,0,0-9.41-4.6,1.72,1.72,0,0,0-2.21,1.27,18.31,18.31,0,0,0-.45,3.76c0,9.27,0,18.54.21,27.81.08,3.14.93,6.26,1.37,9.4.19,1.33-1.22,2.62-2.37,2.17a34.14,34.14,0,0,1-4.36-2c-14.81-8.16-29.61-16.31-44.36-24.58-2-1.1-3.59-.57-5.44,0-4.25,1.31-8.46,2.81-13.07,2.46-3.18-.24-6.29-.3-9.44-1.26-4.24-1.28-8.87-1.38-13-2.87-5.87-2.12-11.18-1.17-16.63,1.07-3.21,1.32-6.54,2.32-10.66,3.76,5.16,1.43,9.54,2.44,13.79,3.85a36.91,36.91,0,0,1,21,17.07,84.13,84.13,0,0,1,10,25.65c.55,2.63,1.06,5,3.66,6.29.41,2.43-1,4.3-2,6.25a1.84,1.84,0,0,1-3.15-.06,186,186,0,0,0-15.43-23.06c-9.26-11.58-19.55-22-33.18-28.43-3.71-1.75-7.62-3.12-11.49-4.68.36-.8.45-1.54.82-1.72,10.26-5.19,20.59-10.24,30.81-15.51,4.59-2.37,9.17-2.17,14-1,5.27,1.25,10.72,1.89,15.82,3.6a13.55,13.55,0,0,0,11.05-.58c3.13-1.56,6-1,9.07.3,13.17,5.75,26.41,11.32,39.63,16.92a28.18,28.18,0,0,0,4.49,1.58,2.23,2.23,0,0,0,2.89-1.78c.87-6,1.57-12,2.32-18,.48-3.84-.73-6.64-4.25-8.81-3.69-2.28-6.94-5.27-11.86-9.1,8.36.42,14.18,2.82,20,4.94,2.1.75,4,1.91,6.08,2.83.8.36,1.81,1.15,2.53.15.9-1.26,0-2.34-.84-3.3a27.48,27.48,0,0,0-12.44-8.62c-5.43-1.73-10.77-3.8-18.49-4.54a65.77,65.77,0,0,1,36.78-1.19c-8.87-9.55-47.13-24.07-80.85-25.47.27-2.51,2.49-2.66,4.13-3.08,10.84-2.76,21.76-5,33.07-4.26,2.54.16,5.11.09,7.67,0a1.93,1.93,0,0,0,1.45-.84,2,2,0,0,0-.17-1.7,18,18,0,0,0-6.57-5.43,65,65,0,0,0-14.28-5.39,172.14,172.14,0,0,0-45.38-5.9c-4.16.06-8.32-.06-12.47-.16-1.59,0-3.7.06-4.23-1.55-.85-2.56,1.9-2.87,3.35-3.6,9.47-4.71,19.53-7.67,29.87-9.93,12.66-2.77,25.42-1.95,38.17-1.72,2.19,0,4.36.83,6.54,1.25,1.83.35,3.67,1,5.53-.26-.15-3-2.66-4.2-4.61-5.65a82.16,82.16,0,0,0-34.05-14.52c-5.29-1-10.67-1.6-16.85-2.51,7.18-4.13,14.43-5.37,21.46-7,14.8-3.39,29.89-2.73,44.85-1.78,8.84.56,17.58,3,26,5.92,1.81.63,3.65,1.16,5.47,1.75.91.29,1.88.47,2.27-.62a2.21,2.21,0,0,0-.45-1.75c-3.39-4.31-7.21-8.2-12.23-10.56a110.07,110.07,0,0,0-29.23-8.68c-18.13-3-36.33-1.54-54.52-1.76-2.13,0-4.35.74-6.41-.46-.14-1.78,1.4-2.07,2.42-2.51q40.53-17.22,81.1-34.36c1.71-.72,3.69-1.21,4.7-3.08l.1.12c-7.24-.4-13.68,2.91-20.37,4.77-18.42,5.12-36.85,10.17-55.64,13.77-4.69.89-9.43,1.52-14.15,2.22-.89.13-2.13.1-2.3-.91a3.09,3.09,0,0,1,1-2.41,123.3,123.3,0,0,1,30.15-18.42,19,19,0,0,1,5.6-1,12.3,12.3,0,0,0,5.38-1.85c1.89-1.13,3.32-3.65,2.61-4.67-1.1-1.58-2.81-1-4.3-1.14-5.49-.66-10.61,1.39-15.59,2.61-1.73-2.12-.15-3.34.44-4.61,3.82-8.22,9.83-14.91,15.59-21.73a19.8,19.8,0,0,1,6.12-4.52c5.52-2.82,8.55-7.63,10.74-13a90.33,90.33,0,0,0,5.93-25c.36-3.48,1-6.93,1.44-10.41a2.87,2.87,0,0,0-3.51-3.35c-13,1.93-23.6,7.53-30.14,19.46-.26.49-.88.79-1.81,1.59-1.33-2.83-.69-5.57-.19-8.1,4.11-20.7,10-40.86,19.49-59.81.15-.28.39-.59.36-.86-.06-.58-.09-1.36-.46-1.66a1.79,1.79,0,0,0-1.68-.09c-3.73,2.45-7.34,5.08-11.12,7.44a1.78,1.78,0,0,1-2.76-1.52c-.73-8.18-1.11-16.37.72-25.22a16.81,16.81,0,0,0-7.46,7.88,59.17,59.17,0,0,0-5.18,14.36c-2.17,10-3.82,20-3.9,30.29,0,2.56,0,5.12-.15,7.67-.12,2.13.62,4.85-2.16,5.75-2,.65-3.53-1.09-4.92-2.39-1.17-1.09-2.19-2.33-3.35-3.43-1.47-1.39-1.51-4.91-4.45-4-2.35.76-2.18,3.71-2.8,5.79-2.54,8.53-5,17.11-7.65,26.47C2136,975.48,2134.43,971.13,2132.84,966.81Z" transform="translate(0.05 0.35)"/><path class="g" d="M2247.79,1450.63c-.11,8.36,1.86,16.48,2.91,24.7,1.61,12.67,3.44,25.31,5.33,38,.53,3.55-.47,4.37-4.22,4q-22.44-2-44.88-4c-11.78-1-23.54-2.56-35.34-3-5.6-.19-7.92-2.48-9.55-7.24-2.27-6.64-5.11-13.08-7.52-19.68-1-2.8-2.66-4-5.66-4-6.71-.1-13.42-.55-20.13-.76-4.11-.13-4.69.42-5.66,4.71-1.33,5.92-2.55,11.87-4,17.76-1.25,5.19-1.42,5.42-6.22,5.2-12.46-.56-24.91-1.3-37.36-2-2-.11-2.82-1.31-2.33-3.15q3.07-11.57,6.31-23.1c9.56-34.14,18.14-68.52,26.09-103.05.86-3.74,1.7-7.47,2.73-11.16a4,4,0,0,1,4.13-3.22c10.56.06,21.11.09,31.66,0,2.8,0,4,1.6,4.86,3.76,3.45,8.25,6.85,16.51,10.32,24.75q22.68,53.82,45.45,107.63c1,2.24,1.1,5.08,4.36,6.51-.86-7.09-1.69-13.91-2.52-20.72q-4.51-37.11-9.06-74.22c-1.53-12.36-3.17-24.71-4.73-37.07-.32-2.53-.61-5.08-.72-7.63-.08-1.88,1-2.88,2.94-2.92.32,0,.64,0,1,0,11.51,0,23,0,34.54,0,2.75,0,4,1.24,4.34,3.9.94,7,2.05,13.9,3,20.86,1.52,10.75,3,21.52,4.49,32.27.66,4.58,1.34,5.29,6.16,5.4,7,.17,14,.05,21.5.05.88-3.09-.58-6.06-.91-9.07-.31-2.86-.63-5.72-1.07-8.56q-3.14-19.89-6.32-39.75c0-.32-.12-.63-.16-1-.35-3,.47-4.08,3.63-4.1q16.78-.12,33.58,0c4.58,0,5.3.7,6.13,5.44,2.67,15.41,5.27,30.84,7.93,46.26q5.28,30.69,10.62,61.37,4.19,24.06,8.38,48.13a11.57,11.57,0,0,1-.09,2.53c-1.55,1.38-3.19,1-4.73.87-12.39-1.32-24.77-2.71-37.16-4-2.63-.27-4-1.46-4.39-4.09-1.67-10.73-3.46-21.44-5.16-32.17-1.49-9.46-2.87-19-4.39-28.4-.76-4.7-1.5-5.38-6.08-5.71-4.78-.34-9.58-.51-14.37-.75C2252.86,1449.31,2250.25,1448.66,2247.79,1450.63Z" transform="translate(0.05 0.35)"/><path class="g" d="M1953.62,1500.3a11.29,11.29,0,0,1-2.59.58q-19.18,0-38.37-.15c-3.82,0-3.93-.19-5.16-4.16-2-6.4-3.8-12.85-5.79-19.24-1.1-3.52-1.6-3.88-5.53-3.9-7,0-14.07.16-21.1,0-2.78,0-4,1.4-4.82,3.68-2.3,6.64-4.63,13.26-6.87,19.91-1,3.09-2.85,4.69-6.3,4.61-4.79-.1-9.59.27-14.39.25-29.1-.13-58.16,1.38-87.22,2.68-26.82,1.2-53.6,3.19-80.39,4.9-13.39.86-26.77,1.91-40.17,2.8-3.3.22-4.06-.51-3.63-3.78,1.54-11.71,3.14-23.42,4.88-35.11,2.87-19.27,5.89-38.52,8.79-57.78,2.57-17.05,5.06-34.11,7.63-51.15.46-3,1.19-3.73,4.46-3.75q17.27-.12,34.53,0c3.06,0,3.94,1,3.63,4.17-.44,4.44-1.23,8.84-1.79,13.27q-4.17,33.27-8.31,66.55c-1.56,12.36-3.21,24.7-4.82,37,1.3,2.12,3.36,1.52,5.14,1.44q19.15-.89,38.31-1.93c3.34-.18,3.53-.41,3.93-4.11q2.88-26.19,5.67-52.4,3.11-29.05,6.14-58.12c0-.32.06-.64.11-1,.67-4.18,1.37-4.91,5.47-5,6.71-.09,13.43,0,20.14,0,4.48,0,9-.06,13.43,0,3.17.07,4.17,1.11,3.93,4q-2.11,25.3-4.31,50.61-2.31,27.21-4.62,54.42c-.19,2.22-.26,4.46-.28,6.7a2.26,2.26,0,0,0,2.24,2.5c2.55.11,5.11,0,7.67,0,11.5-.43,23-.9,34.5-1.32,1.54-.06,3.09-.21,4.08,1.6.66,1.23-1.06,3.61,1.18,3.62,1.45,0,1.89-2.24,2.46-3.72,10.13-26.19,20.34-52.36,30.43-78.57,4.47-11.61,8.85-23.26,13-35,1.29-3.68,3.29-4.92,7-4.86,9.26.17,18.54,0,27.81.08,5.3,0,5.51.23,7.26,5.67,1.86,5.77,3.43,11.64,5.33,17.4q18.26,55.46,36.61,110.89C1953.49,1496.45,1954.63,1498.15,1953.62,1500.3Z" transform="translate(0.05 0.35)"/><path class="g" d="M2445.19,1541.07c-4.1-.64-8.21-1.89-12.29-1.79-6.78.17-10.09-3.58-13.48-8.72-14.23-21.61-28.82-43-43.31-64.39-.84-1.24-1.33-2.93-3.31-3.25-1.17,2.46-.28,4.89.18,7.24,3.53,18.16,7.16,36.31,10.71,54.48a33.78,33.78,0,0,1,.46,5.69,1.74,1.74,0,0,1-1.74,1.8,9.47,9.47,0,0,1-1.9-.22q-18.54-2.29-37.08-4.61c-3.62-.45-4.33-1-5-4.59-1.56-8.47-3-17-4.48-25.45q-8.71-50-17.42-100c-1.71-9.74-3.6-19.45-5.26-29.2-1.19-7-.91-7.29,5.75-7.34,7.35-.07,14.71.22,22.05-.11,4.15-.19,6.43,1.75,8.53,4.88,7.47,11.13,15.09,22.17,22.62,33.27,6.46,9.51,12.86,19,19.3,28.58.87,1.27,1.43,2.9,3.36,3.17,1.13-2.16.1-4.19-.32-6.25q-6-29.07-12-58.14c-.13-.62-.19-1.26-.27-1.89-.26-1.87.44-3.14,2.37-3.37a42.44,42.44,0,0,1,4.79-.15h78.63c1.28,0,2.55.06,3.83.16a.82.82,0,0,1,.57.56c0,.58.13,1.46-.18,1.7-2.8,2.11-5.66,4.13-8.55,6.12-10,6.89-19.9,13.9-30.06,20.53-3,2-3.5,4-2.76,7.18,4,17.42,7.82,34.87,11.69,52.32q9.63,43.46,19.24,86.93c.28,1.24.57,2.49.77,3.75.31,1.94-.47,3-2.54,2.85l-4.78-.39a1.47,1.47,0,0,1,.25-2.4c-1-14.41-5.62-28.09-8.54-42.11-2-11.33-5-22.42-7.13-33.7-1.23-6.43-4.74-10-11.32-11.09-29.55-4.81-59-10.19-88.72-14-6.45-.84-7.95,1.2-6.75,7.22,2.55,12.81,4.76,25.68,6.76,38.58,2.25,9,3.56,18.16,4.92,27.32,1,6.47,3.82,9.88,10.86,11,24.31,3.87,24.29,4.13,19.53-20-1.12-5.64-1.7-11.37-3.14-17-2.11-10.63-4-21.29-6-32-.48-2.61-2-6.28,1.59-7.53,3.1-1.08,5.15,2,6.76,4.26,9,12.79,17.68,25.76,26.27,38.8,7.18,10.11,14.44,20.21,20.77,30.85,5.3,8.93,12.07,14,22.67,14.88,8.4.67,8.34,1.36,10.4,5.64A13.25,13.25,0,0,1,2445.19,1541.07Z" transform="translate(0.05 0.35)"/><path class="g" d="M1529.16,1362c-1.8,9.44-3.54,19.13-5.5,28.77-4.2,20.64-8.52,41.26-12.78,61.89q-6.68,32.36-13.32,64.71c-.25,1.25-.43,2.52-.73,3.76-1.36,5.53-1.38,5.51-6.8,6.18q-19,2.36-38,4.73c-1.91.24-3-.94-2.64-2.86,2.11-9.66,4.29-19.32,6.44-29q4-17.76,7.89-35.53c.4-1.83.55-3.71.84-5.79-4-1.16-7.91-.72-11.58,0-5.25,1-10.84-.16-15.82,2.49-1.29,4.92-2.69,9.81-3.85,14.75-3.72,15.85-7.3,31.72-11,47.56-.94,4-1.27,8.8-3.71,11.66-2.83,3.31-8.29,2.3-12.6,3.11-7.22,1.34-14.51,2.29-21.78,3.28-3.73.51-7.48,1.33-12.06.64,1.19-5.05,2.22-9.63,3.35-14.19q12-48.3,24.11-96.6c2.94-11.76,6-23.5,9-35.23.74-2.82.06-4.73-2.43-6.46-11.79-8.22-23.48-16.58-35.19-24.92a15.34,15.34,0,0,1-2.79-2.48c-.24-.27,0-1.35.35-1.61a3.45,3.45,0,0,1,1.85-.22l83.44,0c.64,0,1.28,0,1.92,0,3.24.19,4,1,3.36,4.13-1.93,8.73-3.95,17.44-6,26.14-2.73,11.82-5.53,23.62-8.19,35.44-.74,3.28.06,4.06,3.31,3.9q9.57-.48,19.14-1c4-.21,4.19-.24,5.08-4.16,3.18-14,6.25-28,9.37-42.06,1.39-6.22,2.78-12.45,4.21-18.67.46-2,1.44-3.71,3.73-3.69,12.76.12,25.53-.66,38.28.44C1528.32,1361.23,1528.54,1361.55,1529.16,1362Z" transform="translate(0.05 0.35)"/><path class="b" d="M1604.74,865.1a20.52,20.52,0,0,1-2.48,2.84,160.63,160.63,0,0,0-39,45.61c-2.72,4.69-5.73,9.22-8.62,13.81a78.54,78.54,0,0,0-11.47,33.21c-.59,5.06-.84,10.18-1.56,15.22a94.71,94.71,0,0,1-2.28,9.26c-.39,1.57-.79,3.64-2.3,4-2.3.47-2.87-2-3.81-3.53-.49-.81-.91-1.66-1.85-3.41a91.09,91.09,0,0,0-7.31,25,228.66,228.66,0,0,0-3,41c.2,12.38.31,24.88,2.12,37.27,1.48,10.08,2.64,20.24,3.76,30.37.58,5.23-1,10.72-1.79,16.06-.12.78-1.85.8-2.38,0a58.14,58.14,0,0,1-8.59-17,14.07,14.07,0,0,0-1.44-2.28v7c0,24.29-.25,48.58.09,72.87a270.69,270.69,0,0,0,3.73,38.07c2.93,18.65,7,37,14.31,54.5a198.13,198.13,0,0,1,8,24.52,4.7,4.7,0,0,1-.25,4.12c-6.82-2.76-10.81-8.62-14.38-14.37-3.46-5.59-5.64-12-8.87-17.82.5,11.19,2.53,22,7.25,32.12,2.15,4.63,4.53,9.16,6.81,13.73-4.16.09-8.33-.07-12.45.34-4.32.43-6.5-1.76-8-5.28-5.27-12.08-9.29-24.5-9.83-37.79-1-24.89-2.17-49.79-2.15-74.72,0-38.68-.24-77.36.1-116a396.21,396.21,0,0,1,21.11-125,253.44,253.44,0,0,1,28.44-58.43,24.78,24.78,0,0,1,1.59-2.39c14.84-17.49,31.89-32.22,52.81-42.07A15.77,15.77,0,0,1,1604.74,865.1Z" transform="translate(0.05 0.35)"/><path class="h" d="M2296,1327.25c4.85-16.54,9.83-33,14.47-49.63,1.19-4.27,1.38-8.82,1.9-13.25.92-7.93,1.76-15.86,2.6-23.79.74-7,1.36-14,2.16-20.93,4.43-38.82,4.41-77.78,3.8-116.76a508.12,508.12,0,0,0-5.57-64.8,425.08,425.08,0,0,0-10.24-50.61,278.34,278.34,0,0,0-16.41-45.94c-.66-1.4-1.49-2.72-2.13-3.9-2.45-.07-2.07,1.55-2.11,2.61-.15,3.9-1.4,7.53-2.6,11.16-.37,1.12-1.34,2.76-2.19,2.87-1.82.22-2.38-1.67-2.86-3.13-5.26-16.08-10.75-32.08-15.6-48.29a48.23,48.23,0,0,0-10.39-19c-10.45-11.77-21.54-22.66-34.47-31.68-8.41-5.86-17.45-10.61-26.42-15.5-1.1-.59-2.12-1.33-3.17-2,10.26,1.22,19.75,5.14,29.11,9.07a154.5,154.5,0,0,1,42.29,25.93c9.41,8.25,17,18.12,24.13,28.38a254,254,0,0,1,29,57,383.38,383.38,0,0,1,19.21,75.86c1.56,10.4,2.63,20.84,3.86,31.28,3.91,33.06,3.66,66.23,3.27,99.42-2.65,14.17-.77,28.65-3.14,42.89-1.62,9.71-1.47,19.7-2.49,29.53-1.29,12.35-2.77,24.69-4.53,37-2.07,14.49-4.54,28.93-6.84,43.4,0,.32,0,.65-.09,1-3.13,14.1-.51,12-14,12.17C2303,1327.61,2299.49,1327.36,2296,1327.25Z" transform="translate(0.05 0.35)"/><path class="g" d="M1577.22,1361.25c1.29,2.81.36,5.31-.09,7.77q-10.79,58.9-21.64,117.8c-.17,1-.34,1.89-.46,2.84-.31,2.43.51,3.24,3.28,3.2a47.72,47.72,0,0,0,4.79-.26c6-.71,12-1.48,18-2.23,3.37-5.36,2.89-11.65,3.93-17.5,6.2-34.91,12-69.88,18-104.83.27-1.57.68-3.12,1.07-4.67a3.2,3.2,0,0,1,3.43-2.62c11.83,0,23.67-.07,35.5,0,3.13,0,4,1.07,3.57,4.15-1.28,8.85-2.7,17.69-4,26.53q-5.47,36-10.92,72c-1.48,9.79-3.07,19.56-4.36,29.38-1,7.62-5,12.89-11.57,16.58a45.19,45.19,0,0,1-17,6.06c-13,1.49-26.06,2.77-39.1,4.08-9.22.92-18.46,1.68-27.68,2.62a60.75,60.75,0,0,1-12.43-.48,17.23,17.23,0,0,1-7.89-3.24c-3.78-2.53-5.78-6-5.14-10.58.71-5.06,1.54-10.1,2.55-15.11q9.3-46,18.71-92c2.35-11.58,4.59-23.18,7-34.73,1.1-5.15,1.34-5.26,6.28-5.29,10.87-.08,21.75,0,32.62,0A22.57,22.57,0,0,1,1577.22,1361.25Z" transform="translate(0.05 0.35)"/><path class="c" d="M1838.7,982.16c8.71,4.21,16.73,8.27,25.34,10.58s17.24,3.69,26.7,5.66c-3.06,6.33-5.86,12-8.54,17.76-1,2.26-3.71,5-2.25,6.94,2.23,3,5.27-.1,7.76-1a288.07,288.07,0,0,0,61.18-29.39c2.64-1.69,4.78-2.24,7.69,0s6.64,3.81,10.11,5.44c7.87,3.72,7.85,3.68.59,9.18-34,25.73-71.54,44.49-112.1,57.28-14.63,4.61-13.2,4.68-19.24-8.33-7-15-13.5-30.34-20.22-45.53-.52-1.17-1.09-2.32-1.49-3.52a3,3,0,0,1,1.52-4c1.15-.57,2.27-1.19,3.45-1.68C1832.72,996,1833.33,993.23,1838.7,982.16Z" transform="translate(0.05 0.35)"/><path class="g" d="M2065.24,1410.62a31.44,31.44,0,0,1-4.87-.49c-12-3.45-23.9-7-35.85-10.48-2.43-.71-3.71-2.05-3.66-4.77.19-11-.32-9.35-10.25-9.5-3.52-.05-7-.08-10.56,0-2.51.06-3.44,1-3.4,3.5.11,7,.16,14.07.6,21.09.27,4.33-1.56,9.77,1.79,12.7,2.91,2.54,8,.86,12.1,1,15.35.35,30.7.57,46,.85,1.92,0,3.84.21,5.75.3a3,3,0,0,1,3.07,2.94c.24,1.9.53,3.81.65,5.72,1,16.59,1.71,33.2,3,49.78.64,8.48-1,13.53-12.25,17.84-4,1.53-8.17,1.72-12.29,1.68-20.79-.23-41.58-.51-62.36-1.11a43.89,43.89,0,0,1-20.27-5.1c-5.84-3.23-8.82-7.72-8.81-14.63q.08-50.85-.34-101.7c-.08-8.31,3.92-13.17,11-16.18a41.21,41.21,0,0,1,15.88-3.27c18.23-.13,36.47-.1,54.7,0a44.37,44.37,0,0,1,15,2.78c9.56,3.47,13.15,8.36,13.69,18.42C2064.07,1391.17,2064.64,1400.39,2065.24,1410.62Z" transform="translate(0.05 0.35)"/><path class="b" d="M1956,1062.87c-2.7,0-4.8,1.62-7.12,2.6-14.64,6.17-29.29,12.32-45.12,16.18,0-2.63,2.07-3.1,3.36-4.05q35.55-25.95,71.14-51.83c8-5.82,16-11.61,24-17.47,3.18-2.34,6.41-3.71,10.61-3.19,13.65,1.69,25.83-2.21,36.8-10.75,1,2.15-.86,2.83-1.72,3.65-5.52,5.29-11.18,10.44-16.77,15.66-1.59,1.49-3.7,2.6-4,5.1a3.3,3.3,0,0,1-1.36.65l-.74.12h.76a5.67,5.67,0,0,0,1.23-.89c2.07,0,3.56-1.28,5.16-2.29,9.46-6,18.89-12,28.36-17.92,1.78-1.12,3.54-2.51,6.24-2.61-6,10.92-41.67,40.67-65.87,57-40.56,27.31-93.34,52-118.09,57.71,9.83-6.25,18.07-11.51,26.34-16.73q21.47-13.58,43-27.1c1.58-1,3.48-1.71,3.8-3.93Z" transform="translate(0.05 0.35)"/><path class="i" d="M2065.27,892.07c2.43-.51,2.66-3.39,4.78-4.36,2,.66,1.36,2.54,1.52,3.93a82.08,82.08,0,0,1-4.88,39.39c-5.22,13.73-11.08,27.09-20.25,38.74-5,6.32-10.61,11.88-18.12,15.14-14.89,6.48-31.73-4.15-32.1-20.3-.1-4.46,0-8.94,1.89-13.13,3.7-.58,2.77,2.26,3,5.54,0-.09,1.85-1.75.71-1.16-.53.27-.8.06-.67-.63,4-21.63,18.27-35.68,35.39-47.36,6.25-4.27,13.56-6.93,20.31-10.44a29.7,29.7,0,0,0,3.84-2.64,20.67,20.67,0,0,1,1.68-1.42,9.23,9.23,0,0,1,1.86-1.13Z" transform="translate(0.05 0.35)"/><path class="j" d="M1526.36,1554.43c14.29-1.6,28.57-3.26,42.87-4.78,16.2-1.74,32.41-3.47,48.64-5,20.37-1.9,40.75-3.77,61.15-5.31,22.31-1.69,44.66-3,67-4.42,14-.87,28.11-1.48,42.15-2.26q62.77-3.5,125.62-4c50.86-.42,101.71-.41,152.54,1.84,20.12.89,40.27,1.5,60.37,2.79,28.71,1.85,57.44,3.52,86,6.82,20.32,2.35,40.71,4.15,61,6.47,12,1.37,24,3.27,36.07,4.91,2.85.39,5.72.66,8.57,1,.24,3.35-1.62,2.7-3.58,1.87-13.65-1.55-27.29-3.12-41-4.63q-14.29-1.58-28.59-3c-44.56-4.37-89.25-7-133.94-9.34-44.4-2.35-88.85-2.93-133.31-2.94-40,0-80,0-119.92.93q-55.6,1.23-111.17,4.71c-15.63,1-31.3,1.52-46.93,2.57-23.28,1.55-46.55,3.37-69.82,5.1-9.88.73-19.76,1.44-29.63,2.3-19.74,1.73-39.48,3.58-59.22,5.34-3.82.35-7.65.57-11.48.85C1528,1557.09,1526.14,1557.74,1526.36,1554.43Z" transform="translate(0.05 0.35)"/><path class="k" d="M2000.44,983.48c-2.74.8-4.54,1.47-6.41,1.83-7.61,1.48-12.12-.37-16.21-7a34,34,0,0,1-4.71-16.37,56.16,56.16,0,0,1,2.82-19.81c6.1-19.6,16.66-36.42,32.31-49.89a42.67,42.67,0,0,1,15.74-8.77,12.49,12.49,0,0,1,7.52-.33c1.16.37,3,1.24,3,1.93.14,4.47,3.26,5.54,6.62,6.74,1.15.42,1.32,3.57.32,4.29a46,46,0,0,1-5.62,3.52c-16.45,8.49-28.28,21.33-36.66,37.76-5.48,10.74-6.26,21.89-4.78,33.5C1995,975.46,1998,978.92,2000.44,983.48Z" transform="translate(0.05 0.35)"/><path class="k" d="M1750.34,901.85c-.39-7-.67-14,2.05-20.7,1.24-3,3.59-3.69,6-1.63a52.79,52.79,0,0,1,9.24,11c6.92,10.42,12.17,21.72,17,33.2a317.68,317.68,0,0,1,17.06,51.75c.7,3.06,2.61,6.53.15,9.13-3,3.16-6.68.45-9.8-.54-4.24-1.35-8.34-3.35-10.68-7.57-4.2-6.66-3.61-14.7-6.39-21.82a335.5,335.5,0,0,0-19.82-41.42A45.37,45.37,0,0,1,1750.34,901.85Z" transform="translate(0.05 0.35)"/><path class="l" d="M1807.14,985.25a10.45,10.45,0,0,1-1-2.49c-2.79-19.1-9.48-37-16.51-54.86a227.4,227.4,0,0,0-14-29.37c-4.13-7.25-8.66-14.16-14.74-20a9.93,9.93,0,0,1-1.39-2.3c.52-.56.82-1.19,1.29-1.34,11.85-4,12.36-4,20.09,6.1,14,18.18,23.77,38.53,30.3,60.46a141.92,141.92,0,0,1,5.75,28.09c.09.95.3,1.89.37,2.85C1818,981.44,1817,982.64,1807.14,985.25Z" transform="translate(0.05 0.35)"/><path class="m" d="M1735.23,897.54c3,1,3.71,4.3,6,6,15.3,14.29,25.06,32,32.42,51.36,2.67,7,7.35,13.38,5.52,21.5l-.18,3.53c-.64,1.37-.58,2.93-1.21,4.3-5.53,6.93-8.77,7.29-14.29,1.28-3.91-4.25-6.56-9.36-9-14.56a225.47,225.47,0,0,1-11.37-30.33c-3.5-11.55-6.44-23.27-9.63-34.92,8.75,1.85,8.57,11.45,13.28,15,1.45,2.2,2.27.45,1.35,1.34q-.11.11-.63-.63c-3.85-5.35-7-11.14-11.25-16.26C1734.46,903,1732.89,900.45,1735.23,897.54Z" transform="translate(0.05 0.35)"/><path class="n" d="M2024.08,879.61c-25.9,11.68-42.15,30.81-51.22,56.29-3.92,11-4.95,22.34-1.79,33.85a45.45,45.45,0,0,0,3.31,7.9,2,2,0,0,1-.09,1.7c-.66,1-1.64.58-2.47.15a19.71,19.71,0,0,1-9.1-9.48,44.72,44.72,0,0,1-4.18-23.23c1.57-17.52,9.24-32.26,20.19-45.57,7.58-9.22,16.28-17,27.37-22C2012,876.68,2017.66,875.72,2024.08,879.61Z" transform="translate(0.05 0.35)"/><path class="o" d="M1911.5,715.84c5.87.46,9.66,4.24,13.2,8.35,1.65,1.92,2.9,4.25,4.75,5.92,6,5.41,9.82,12.45,14.37,18.93,2.46,3.5,1.91,5.07-1.9,7.86s-8.17,5.09-11.5,8.39c-6.28,6.21-13.72,3.86-20.72,3.28-2.8-.24-5.51-3-8-4.89-6.31-4.79-12.47-9.77-18.72-14.64-2.25-1.75-4.7-3.26-6.86-5.11-3.53-3-3.27-5,.92-9.18,11.54,3.58,20.77,12.09,32.51,15.26,3.55,1,7.29,4.09,10.66,1s.9-7.18,0-10.75c-1.34-5.58-4-10.64-6.65-15.7C1912.17,721.86,1909.55,719.36,1911.5,715.84Z" transform="translate(0.05 0.35)"/><path class="p" d="M2136.34,882.51l7.2-21.69c5.43-16.35,8.65-33.21,12.07-50.06,2.64-13,.19-25.29-2.82-37.66a282,282,0,0,0-8.95-30.21c-.76-2.07-1.16-4.27-1.73-6.41a55.34,55.34,0,0,1,17.28,26.6c5.89,19.5,7.4,39.43,5.55,59.5-1.52,16.41-7.9,31.37-17,45.12-2.63,4-5.43,7.84-8.12,11.78A6.48,6.48,0,0,1,2136.34,882.51Z" transform="translate(0.05 0.35)"/><path class="q" d="M1911.5,715.84c2.24,4.22,4.43,8.46,6.72,12.64,3.09,5.66,4.79,11.8,6.16,18s-2.59,10.14-8.62,8.24c-9.75-3.07-19.26-6.86-27.88-12.45-3.69-2.39-8.39-3.4-10.86-7.55,6.25-5.89,12.45-4.32,18.82-.07,2.72,1.82,4.07,1,4.18-2.14.14-4.09,0-8.19.18-12.27.14-3.43,1.08-4.3,4.69-4.5C1907.09,715.64,1909.3,715.81,1911.5,715.84Z" transform="translate(0.05 0.35)"/><path class="r" d="M1858,717.32c-9.44-1.22-18.56-3.37-27.23-7.57-4.68-2.26-7.86-6.29-12.08-9-5.08,2.75-6.06,7.78-6.43,12.27-.64,7.86-2.87,15.58-2.24,23.56a5.29,5.29,0,0,1-1.83-4.21c0-8.27-.47-16.56.09-24.79a61,61,0,0,1,3.6-17.58c2-5.36,7-6.53,11.25-2.66,3.52,3.21,6.63,6.91,10.36,9.83,5.52,4.31,11.84,7.38,18.26,10.16,1.15.51,2.47.64,3.63,1.12C1860.12,710.46,1860.35,711.29,1858,717.32Z" transform="translate(0.05 0.35)"/><path class="s" d="M1797.75,882.67a21.23,21.23,0,0,1,3,1.18c5.1,2.84,7.38,8.5,11.9,11.93-.71,3,1.21,3.52,3.56,4.13s2.71,2.52,1.41,4.48c-1.51,2.26-.59,3.2,1.57,4.18,3.54,1.62,3.47,1.76,2.35,6-.15.55-.59,1.36-.38,1.63,3.75,4.73,2.55,11,5,16.14,1.18,2.55,1.6,5.47,2.23,8.26a7,7,0,0,1-1.25,5.43c-1.51,2.33-5.2,2.41-6.3-.06a37.79,37.79,0,0,1-2.7-8.1,63,63,0,0,0-5.55-16.17,12.09,12.09,0,0,0-3.28-4.44,4.34,4.34,0,0,1-1.73-5c.25-.81.24-2.25-.26-2.65-2.65-2.16-4.86-3.92-4.76-8.2.06-2.64-3.11-5.31-4.71-8-1.43-2.46-3-4.93-2.85-8C1795,884.06,1795.72,883,1797.75,882.67Z" transform="translate(0.05 0.35)"/><path class="t" d="M1961.63,901.65a20.78,20.78,0,0,1-1.69-2.29c-1.36-2.48-.48-4.72,1.93-5a6.54,6.54,0,0,1,2.83.15c2.37.89,4.19,1.33,3.26-2.32,0-.16.35-.6.58-.64,1.82-.26,4.85,1.63,4.36-2.56,3.85-1.3,7.69-2.63,11.57-3.84a2,2,0,0,1,1.62.73,1.93,1.93,0,0,1,.12,1.72,6.12,6.12,0,0,1-1.8,2.19c-6.53,4.34-10.78,10.8-15.46,16.8-5.6,7.17-8.42,15.7-10.72,24.36-1,3.69-1.58,7.49-2.28,11.25a15.4,15.4,0,0,1-3,6.91c-2.89-8.5,1.35-15.39,2.07-22.25-.41-.56-.54-.91-.8-1.06-9.69-5.57-7-3-2.54-12.85,1.09-2.44-.62-5.62,2.22-7.46,0-4.28,2.84-4.29,5.92-4,.63.06,1.28,0,1.92,0Z" transform="translate(0.05 0.35)"/><path class="u" d="M2059.57,897.72c-.76,2-2.71,2.59-4.37,3.44-3.7,1.87-7.4,3.73-11.19,5.4-14.21,6.28-24.41,17.12-33,29.58a64.27,64.27,0,0,0-9.78,23.59c-2.17-2.83,0-6.53-3.15-8.25,2.63-15.55,11.14-27.47,23.29-36.92a178,178,0,0,1,17.43-11.65c9.43-5.7,19.27-10.74,27.73-18.33,1.82,3.28-1.57,5-1.29,7.49l.22-.11a14.1,14.1,0,0,0-2.12,2.11l.2-.19C2062.07,895,2060.17,895.67,2059.57,897.72Z" transform="translate(0.05 0.35)"/><path class="v" d="M1779.2,976.39c-1.55-3.48-3-7.06-2.25-10.91.56-2.87-2.45-1.79-3-3.17-1.27-3.24-2.34-6.56-3.61-9.8-6.06-15.56-15-29.41-25-42.66-1.51-2-3.64-3.61-4-6.32a6.18,6.18,0,0,1,1.81.33c1.38.7,2.78,2.3,4,2.14,1.88-.24,2.37-2.57,3.28-4.15,4.58,3.35,6.52,8.63,9,13.31a347.79,347.79,0,0,1,17.29,37.14c3,7.75,5.15,15.71,4.7,24.15Z" transform="translate(0.05 0.35)"/><path class="w" d="M1744.57,874.51l-7.23,13.89c-.82.15-1.36.33-1.41.24a6.46,6.46,0,0,1-.69-1.71c-.8-3.69-1.3-7.47-2.43-11-.91-2.87-1.1.31-1.71.42a5.82,5.82,0,0,1-1.31.11,10.42,10.42,0,0,1,.49-6.52c5.81-13,14.39-23.82,26.4-31.69a100.63,100.63,0,0,1,10-5.55c.55-.28,1.74.34,2.42.84a1.83,1.83,0,0,1,.1,1.71c-3.09,2,1,3.49.3,5.27-1.06.82-2.68.58-3.51,1.84l.16-.13c-4.42,4.71-10.66,7-15.24,11.54C1745,859.56,1738.17,865,1744.57,874.51Z" transform="translate(0.05 0.35)"/><path class="x" d="M1744.57,874.51c-2.79-1.43-3-4.49-4.46-6.74-.3-.45-3.67.73-2.2-1.74a60.11,60.11,0,0,1,26.32-23.82c.51-.25,1.24,0,1.87,0,1.3,1.18,3.3,2.12,3.77,3.57,1.11,3.48,3.32,2.78,5.72,2.24l-.2-.2c-2.79,1.92-5.49,4-8.37,5.73A75.47,75.47,0,0,0,1744.57,874.51Z" transform="translate(0.05 0.35)"/><path class="y" d="M2224.53,1281.7c4.94.7,8.46,3.9,12,7,9,7.87,15,17.72,19,28.88,1.17,3.24,2.46,6.44,3.69,9.66-2.54.08-5.08.24-7.62.23a3.33,3.33,0,0,1-3.55-2.58C2244.13,1308.34,2234.79,1294.77,2224.53,1281.7Z" transform="translate(0.05 0.35)"/><path class="z" d="M2067.15,873.62a18.51,18.51,0,0,1-1.23,1.46,1.72,1.72,0,0,1-2.48.07c-1.21-1-2.31-2.15-3.44-3.25-2.27-2.22-4.28-4.8-6.85-6.6-5-3.53-8.65-7.33-5.66-14a5.27,5.27,0,0,0,.15-1.88c.06-1.65-2.32-3.81.47-4.82,2-.72,3.34,1.39,4.85,2.46,5.32,3.77,9.68,8.51,11.53,14.77,1,3.27.77,6.88,2.62,10C2067.39,872.29,2067.15,873.05,2067.15,873.62Z" transform="translate(0.05 0.35)"/><path class="aa" d="M1810.7,1302.91c-4.71,8.22-8.41,14.53-12,20.93a6.33,6.33,0,0,1-6.11,3.72c-4.38-.07-8.77,0-13.64,0C1783.29,1322.19,1802.38,1307.19,1810.7,1302.91Z" transform="translate(0.05 0.35)"/><path class="ab" d="M1919.39,1300.73a4.64,4.64,0,0,1-1.77,3.23c-7.94,7.85-16.95,14.4-25.88,21-4.69,3.48-9.8,3-14.93,2.14a2.38,2.38,0,0,1,1.44-2.75c12.86-6.36,24.86-14.14,36.91-21.86,1.34-.86,2.66-1.75,4.35-1.68Z" transform="translate(0.05 0.35)"/><path class="ac" d="M1526.36,1554.43l3.51,1.79a7,7,0,0,1-4.31,1.69c-6.9.71-13.8,1.36-20.68,2.15-10.93,1.25-21.93,1.63-32.81,3.42-3.7.61-7.56.17-11.35.22l.09.1c.75-.55,1.44-1.47,2.25-1.59,12-1.64,24-3.14,35.91-4.76,6.3-.86,12.59-1.85,18.87-2.87C1520.69,1554.12,1523.5,1553.66,1526.36,1554.43Z" transform="translate(0.05 0.35)"/><path class="ad" d="M2314.82,1554.33l3.58-1.87c4.57-1.14,8.79,1,13.15,1.57a347.31,347.31,0,0,1,37.78,6.64c-2.73,1.82-5.27,1.35-7.63,1-10.06-1.43-20.09-3.09-30.15-4.56-3.46-.5-7-.71-10.45-1C2318.9,1555.89,2316.6,1556,2314.82,1554.33Z" transform="translate(0.05 0.35)"/><path class="ae" d="M1735.23,897.54c0,3.75,2.39,6.48,4.27,9.38,4.16,6.37,8.44,12.66,12.61,19,.23.37-.13,1.12-.22,1.69-.51-.08-1.27,0-1.49-.27-3.6-4.83-7.18-9.67-10.64-14.61-1.82-2.6-3.5-5.28-6.23-7.07-2.23-2.63-1.52-5.32-.15-8,.7-.84,1.35-.78,2,.08Z" transform="translate(0.05 0.35)"/><path class="af" d="M2084.8,949.82c-1.62,6.68-6.31,11.29-10.42,16.28.79-6.34,4-13,7.27-15.88.65-.57,1.77-.6,2.67-.88Z" transform="translate(0.05 0.35)"/><path class="ag" d="M1825.64,958.89a9,9,0,0,1-2.17-.78,3.74,3.74,0,0,1-1.11-1.51c-1.12-2.63-.31-4.88,2.34-6.38a2.7,2.7,0,0,1,3.45.47c1.6,1.61,1.7,3.91.1,6A14.1,14.1,0,0,1,1825.64,958.89Z" transform="translate(0.05 0.35)"/><path class="ac" d="M1460.72,1563.7c-2.64,2.68-5.87,1.12-8.93.56l9-.46Z" transform="translate(0.05 0.35)"/><path class="m" d="M1735.36,897.74l-2-.08c-.66-1.76-1.34-3.52-2-5.3-.08-.23.12-.58.26-.84.46-.82.88-.74,1.25.2C1733.73,893.73,1735.86,895.2,1735.36,897.74Z" transform="translate(0.05 0.35)"/><path class="ah" d="M2247.79,1450.63c3-2.74,3.51-2.77,7.69-.42Z" transform="translate(0.05 0.35)"/><path class="ai" d="M2445.19,1541.07l8.1-.28-.17-.11a2.2,2.2,0,0,0,.21,1.72C2450.44,1543,2447.61,1543.34,2445.19,1541.07Z" transform="translate(0.05 0.35)"/><path class="v" d="M1777.81,984.22a4.44,4.44,0,0,1,1.21-4.3A3.3,3.3,0,0,1,1777.81,984.22Z" transform="translate(0.05 0.35)"/><path class="b" d="M2124.77,901.52c-.07.56-.11,1.12-.22,1.68,0,.27-.22.75-.3.75-.74-.08-1-.56-.56-1.2a6.49,6.49,0,0,1,1.21-1.12Z" transform="translate(0.05 0.35)"/><path class="p" d="M2134.53,886.67c.07-1.68.22-3.34,1.9-4.32A4.78,4.78,0,0,1,2134.53,886.67Z" transform="translate(0.05 0.35)"/><path class="x" d="M1775.59,848c-.17-1.15.62-2,1.43-1.46,1.69,1.22-.49.82-.77,1.26-.08.13-.56,0-.86,0Z" transform="translate(0.05 0.35)"/><path class="x" d="M1765.94,842.31c.24-2.38,2.08-1.72,3.51-1.84C1768.88,842.23,1767.77,843,1765.94,842.31Z" transform="translate(0.05 0.35)"/><path class="p" d="M2142.19,736.65a4.27,4.27,0,0,1-1.67-3.84A4.27,4.27,0,0,1,2142.19,736.65Z" transform="translate(0.05 0.35)"/><path class="ab" d="M1921.44,1298.9l.45-.65-.55.56Z" transform="translate(0.05 0.35)"/><path class="ab" d="M1921.34,1298.81a1.88,1.88,0,0,1-1.95,1.92l.12.12a2.46,2.46,0,0,1,1.93-1.95Z" transform="translate(0.05 0.35)"/><path class="af" d="M2084.32,949.34l1.16-.68c-.23.38-.46.77-.68,1.16Z" transform="translate(0.05 0.35)"/><path class="b" d="M1607.11,863.35l-2.52,1.87C1604.89,863.87,1606,863.58,1607.11,863.35Z" transform="translate(0.05 0.35)"/><path class="c" d="M1694.94,677a2.25,2.25,0,0,1-1.75,1.83A2.08,2.08,0,0,1,1694.94,677Z" transform="translate(0.05 0.35)"/><path class="d" d="M2240.05,1049.44a6.12,6.12,0,0,1,1.12-1.29c.65-.43,1.18-.15,1.29.6,0,.08-.48.31-.76.36-.57.11-1.16.15-1.75.21Z" transform="translate(0.05 0.35)"/><path class="ah" d="M2209.11,1471.74a8.7,8.7,0,0,1-1.19-2.56c-.89-8.86-1.77-17.73-2.47-26.61-.37-4.76-2.28-9.29-1.9-14.18.27-3.61,1-4.53,4.5-4.7a19.64,19.64,0,0,1,2.87,0q15.18,1.52,30.36,3.09a27.22,27.22,0,0,0,3.79.46c11.2-.5,22.19,2,33.35,2.41,10.45.43,20.84,2.39,31.26,3.67,1.76.22,2.65,1.28,3.37,2.89,2,4.49,1.75,9.37,2.64,14,1.84,9.66,3.2,19.42,4.76,29.13-13,2.6-25.45.31-37.77-3.71q-2.08-11.7-4.16-23.4c-.37-2.14-1.49-3.62-3.71-3.6-8.28.1-16.45-1-24.66-1.8-5.71-.54-6.52.61-6.21,6.59.11,2.2.66,4.38.91,6.58.42,3.78.75,7.57,1.12,11.36a7.89,7.89,0,0,1-7.7,2.65C2228.59,1472.53,2218.77,1473.14,2209.11,1471.74Z" transform="translate(0.05 0.35)"/><path class="ai" d="M2188.08,1467.85c5.64,12.81,11.3,25.61,16.87,38.45.35.79.05,1.86.05,2.77-2.49,1.34-5.1.9-7.54.52a178.73,178.73,0,0,0-24.77-1.65c-3.82-.06-5.78-1.8-7-5.13-2.59-6.84-5.45-13.59-7.93-20.47-1.38-3.84-3.64-5.39-7.78-5.45-6.35-.1-12.69-1.12-19.05-1.3-11.12-.31-8.8-.88-11.67,9.3-1.3,4.58-2,9.33-3.17,13.95s-2,5.52-6.59,4.77c-10.4-1.71-21-.69-31.32-2-1-3.24.47-5.93,1.13-8.61,2.36-9.57,5-19.07,7.65-28.57a9.73,9.73,0,0,1,1.49-2.38c4.68-3.91,10.21-3.07,15.57-2.59,20.32,1.8,40.71,2.5,61.08,3.4C2173,1463.18,2181.07,1463.15,2188.08,1467.85Z" transform="translate(0.05 0.35)"/><path class="ah" d="M2188.08,1467.85c-12.93-1.64-26-1.26-38.91-2.5-11.75-1.14-23.51-.53-35.15-1.75a246.72,246.72,0,0,0-25.61-1.59c.35-6.74,3-13,4.33-19.51,1.45-7.16,3.64-14.17,5.42-21.27.54-2.17,1.8-3.38,4-3.36q12,.09,23.93.39a12.63,12.63,0,0,1,3.66,1c2.15.77,2.8,2.33,2.32,4.52-1.63,7.45-3.3,14.89-4.78,22.36-.6,3-.74,6.18-1.16,9.84,4.91.24,9.33.27,13.72.71,8.56.85,8.64.83,5.37-7.46-2.8-7.11-5.72-14.18-8.29-21.38-.81-2.28-2.43-4.58-1.43-7.28,8-1.34,23.47-.88,29.37.52a7.86,7.86,0,0,1,6.13,5.22C2176.54,1440.23,2182.36,1454,2188.08,1467.85Z" transform="translate(0.05 0.35)"/><path class="ai" d="M2282.68,1475.68c5.73-.33,11.45-.68,17,1.27a6.92,6.92,0,0,0,2.83.3c6.13-.51,12,1.12,17.92,2.14,3.39,13.56,5,27.42,7.26,41-2.54,2.2-5.21,1.35-7.62,1.14-8.86-.73-17.7-1.67-26.54-2.67-2.65-.29-4.81-1.39-5.26-4.55C2286.47,1501.4,2284.56,1488.54,2282.68,1475.68Z" transform="translate(0.05 0.35)"/><path class="ai" d="M2209.11,1471.74c1-.66,2-1.85,3.07-1.89,6.28-.29,12.67-.92,18.81.5a58.21,58.21,0,0,0,15,1.06c2.79,4.91,1.91,10.55,3,15.8,1.67,8.41,2.28,17,3.33,25.47-2.37,2.11-5,1.24-7.46,1.06-8.89-.63-17.77-1.45-26.65-2.3-3.63-.35-4.53-1.17-4.95-4.6C2211.77,1495.15,2210.46,1483.44,2209.11,1471.74Z" transform="translate(0.05 0.35)"/><path class="aj" d="M2142.31,1453.26c-3.67,1.43-7.14.58-10.57.25-.68-.07-1.82-1.26-1.79-1.88.34-6.05,1.92-11.87,3.59-17.66.07-.23,1.09-.26,1.65-.23.23,0,.52.4.62.68C2138.07,1440.63,2141.56,1446.43,2142.31,1453.26Z" transform="translate(0.05 0.35)"/><path class="ah" d="M1837.11,1460.2c4.66-12.53,9.3-25.08,14-37.59.78-2.08,1.9-4,2.87-6a4.07,4.07,0,0,1,3.79-2.42c1.27-.05,2.55-.11,3.82-.11q26.84-.08,53.65-.11c1.28,0,2.55,0,3.83.07a4.21,4.21,0,0,1,4.19,3.23c2.17,6.65,4.45,13.27,6.58,19.94,2.42,7.56,4.72,15.16,7.07,22.74a6.19,6.19,0,0,1-5.19,2c-27.36-1.85-54.62,3-82,1.25C1845.39,1462.83,1840.75,1463.67,1837.11,1460.2Z" transform="translate(0.05 0.35)"/><path class="ai" d="M1837.11,1460.2c13.67-.1,27.34-.14,41-.3,7.92-.1,15.79-.49,23.71-1.18,10.65-.93,21.57-1.61,32.24,1a14.25,14.25,0,0,0,2.86.15c5,12,8.66,24.55,12.8,36.69-.86.69-1.3,1.35-1.75,1.35-10.87.1-21.73.1-32.59.17a4.64,4.64,0,0,1-4.94-3.61c-1.83-6.11-3.51-12.27-5.4-18.37-1.73-5.61-2.19-6-8.08-6-7.68-.06-15.35.14-23,.11-3.35,0-5.27,1.39-6.32,4.62-2.05,6.38-4.39,12.67-6.58,19-1,3-2.54,4.77-6.16,4.73-9.9-.09-19.81.21-29.72.28-2.1,0-2.8-1.08-2.24-3.08a33.05,33.05,0,0,1,1.15-3.66Q1830.56,1476.15,1837.11,1460.2Z" transform="translate(0.05 0.35)"/><path class="ai" d="M1677.81,1471.74c-.37,4.74-.75,9.48-1.16,14.55,7.07,1.51,14,.57,20.92-.2,8-.88,15.91-.88,23.87-1.1,3.27-.09,4.06.86,3.93,3.84a13.53,13.53,0,0,1-.14,1.91c-2.71,15.14,1,12.54-14.56,13.53-14.3.91-28.57,2.2-42.87,3.24-4.76.34-9.56.35-14.33.68s-9.5.88-14.26,1.26c-2.85.22-4-1-4-3.94a39.82,39.82,0,0,1,.37-4.76q2.08-14.18,4.29-28.33a38,38,0,0,1,1.32-4.59c9.88-4.87,20.52-4.89,31.11-4.41C1677.23,1463.64,1679.86,1466.43,1677.81,1471.74Z" transform="translate(0.05 0.35)"/><path class="ai" d="M1769.91,1469.8c0,.32,0,.63-.05,1-.8,13.37-1.46,12.42,12.19,11.69,10.21-.54,20.42-1,30.64-1.09,4.8,0,5.44.61,5.26,5.63-.48,13.65,1.23,12.82-13.1,13.2-22,.59-44,1.45-66.07,2.27-10.2.38-10.23.46-9.1-9.91,1.11-10.13,1.25-20.4,3.9-30.34,10.83-5.87,22.28-3.67,33.44-1.88C1772,1461.11,1771.06,1465.94,1769.91,1469.8Z" transform="translate(0.05 0.35)"/><path class="ah" d="M1677.81,1471.74c-1.28-5.71-1.28-5.87-5.41-5.84a79.91,79.91,0,0,0-15.09,1c-5.22,1-10.7.66-16.07.9-.6-4.85,1-9.43,1.7-14.11,1.36-8.76,2.61-17.53,4-26.29.7-4.45,1.6-5.22,6.17-5.57,2.22-.16,4.45-.1,6.67-.17,5.39-.18,10.77,0,16.1-1.34,2.65-.67,5.66-1.15,8.41.91-1.12,10.93-2,21.92-4.22,32.79-.74,3.7-.52,7.59-.64,11.4C1679.36,1467.69,1679.43,1469.92,1677.81,1471.74Z" transform="translate(0.05 0.35)"/><path class="ah" d="M1769.91,1469.8c-.13-1.56-.23-3.13-.42-4.68a3,3,0,0,0-3-3c-2.49-.13-5-.18-7.51-.16-8.46,0-16.92.13-25.37.2a40.39,40.39,0,0,1,.72-12.3c.65-3.08.59-6.3.92-9.45q1-9.92,2.19-19.83a2.77,2.77,0,0,1,2.37-2.6,137.65,137.65,0,0,1,30.34-1.86,3.41,3.41,0,0,1,3.52,3.68c-.07,6,.43,12.19-.6,18.07-1.39,7.91-1.33,15.8-1.52,23.72C1771.45,1464.44,1772.11,1467.4,1769.91,1469.8Z" transform="translate(0.05 0.35)"/><path class="ah" d="M2396.93,1491.08q-13.17-19.35-26.34-38.68c-1.23-1.8-2-4.09-5.05-4.5,2.19,12.55,4.35,25,6.51,37.37-7.67,4.36-15.38-.23-23.08,0-4.36.1-8.77-.64-13.17,0-.47-.82-1.29-1.6-1.37-2.46-1.35-14.55-4.5-28.8-7.33-43.09-.59-3,.53-4.26,3.42-4.26a15.18,15.18,0,0,1,1.91,0c15,2.26,30.1,4.46,45.12,6.87,4.39.7,8.83.87,13.22,1.55s7.71,4.39,12.6,3c4.44-1.28,8.69,1.37,13.11,1.85,5.34.58,10.59,2,15.9,2.89,3.93.66,6.15,2.91,7,6.73,2,9.3,4.17,18.57,6,27.91.77,4,2.56,7.91,2.16,12.15-5.43,2.53-10.65,0-15.85-.89C2420,1495.48,2408.24,1494.55,2396.93,1491.08Z" transform="translate(0.05 0.35)"/><path class="ai" d="M2396.93,1491.08c.86-1,1.74-1.81,3.21-1.57,6.84,1.11,13.69,2.14,20.51,3.31q11.66,2,23.27,4.2a20.92,20.92,0,0,1,3.54,1.35c3.59,10.16,4.77,20.89,7.42,31.28.62,2.44,1.28,4.88,1.69,7.36s-1.63,3.07-3.45,3.67l.17.11a4.08,4.08,0,0,0-3.12-1.84c-5.63-.77-11.25-1.63-16.89-2.31a13.08,13.08,0,0,1-10.11-6.09C2414.53,1517.32,2405.69,1504.23,2396.93,1491.08Z" transform="translate(0.05 0.35)"/><path class="ai" d="M2335.8,1485.21c.43-2.43,1.63-4.52,4.33-3.87,7.43,1.79,15.09,1.27,22.54,2.65,3.1.58,6.25.86,9.38,1.28,3.15,9.39,3.79,19.31,6,28.89.86,3.71,1.52,7.47,2.08,11.23.35,2.28-1,3.59-3.37,3.31-10.09-1.2-20.17-2.48-30.26-3.74-2.46-.3-4.13-1.5-4.59-4.06-1-5.32-2-10.62-2.88-15.94C2337.9,1498.38,2336.87,1491.79,2335.8,1485.21Z" transform="translate(0.05 0.35)"/><path class="ah" d="M1386,1500.46c3.73-14.46,7.54-28.9,11.1-43.39.71-2.86,1.94-4.1,4.8-5,9.2-2.77,18.74-3.56,28.1-5.32,17.8-3.34,35.73-5.92,53.73-8,6.3-.74,12.54-2,18.81-3,.94-.15,1.9-.23,2.85-.3,4.09-.31,5.29,1,4.52,4.9-1.12,5.6-2.13,11.23-3.37,16.81-1.79,8.07-3.75,16.1-5.64,24.15-12.23,5-24.78,7-37.86,4,1.49-7.14,3-14.27,4.46-21.42a44.84,44.84,0,0,0,.83-5.64c.14-1.84-1.2-3.32-2.83-3-6.62,1.45-13.35.61-20,1-1.59.11-3.2.06-4.77.27-5.25.73-7.28,2.52-8.49,7.59-1.39,5.87-2.61,11.79-4,17.66-.73,3.09-1.65,6.14-2.49,9.2-4.63,4.61-10.92,4.62-16.68,5.47C1401.34,1497.64,1393.9,1500.37,1386,1500.46Z" transform="translate(0.05 0.35)"/><path class="ai" d="M1463.05,1485.27c9.44-1.23,18.87-2.54,28.31-3.66,3.15-.37,6.37-.25,9.55-.35.54,4.24-1.18,8.15-1.93,12.19-1.67,9-3.76,18-5.63,27-.42,2-1.38,3.81-3.49,4-11.67,1-23.12,4-34.9,3.93-.27,0-.54-.32-1.22-.75C1456.06,1513.49,1459.48,1499.37,1463.05,1485.27Z" transform="translate(0.05 0.35)"/><path class="ai" d="M1386,1500.46a17.56,17.56,0,0,1,9.24-4.14c10.22-1.4,20.34-3.48,30.5-5.3a3.3,3.3,0,0,1,.08,1.56c-.79,1.29-.61,2.87-1.23,4.22-2.61,11.45-5.25,22.89-7.82,34.35-.58,2.61-2.17,3.44-4.69,3.78-10.68,1.45-21.34,3.09-32,4.65-2.63.38-3.52-.47-2.89-3,2.7-11.1,5.48-22.18,8.22-33.28C1385.64,1502.33,1385.82,1501.39,1386,1500.46Z" transform="translate(0.05 0.35)"/><path class="ah" d="M1424.6,1496.8a4,4,0,0,1,1.23-4.22A3.92,3.92,0,0,1,1424.6,1496.8Z" transform="translate(0.05 0.35)"/><path class="ai" d="M1553,1479.39c-.69,4.7-1.46,9.4-2,14.11-.23,1.89.92,3,2.81,3,2.85,0,5.72-.13,8.56-.35,6-.47,12-1,18-1.56,4-.37,4.29-.58,5.18-4.25.75-3.08,1.23-6.22,1.88-9.32s1.35-6.19,2-9.28c10.11-5.52,21-5.55,32-4.3,4.68.53,6.3,3.66,4.58,8.21-.88,6.31-1.71,12.63-2.65,18.93s-4.94,10.21-10.17,13.1a53,53,0,0,1-21,6c-18.08,1.65-36.19,3-54.2,5.47-4.4.6-8.92.35-13.38.45a17,17,0,0,1-7.39-1.74c-6-2.69-7.72-5.41-6.83-12,.76-5.68,2-11.29,3.08-16.93.47-2.5.91-5,1.37-7.52a9.8,9.8,0,0,1,8-6.09c7.55-1,15.08-2.5,22.7-2.32C1549.17,1473,1554.72,1472.4,1553,1479.39Z" transform="translate(0.05 0.35)"/><path class="ah" d="M1626,1475.61c-1.32-5.86-1.32-6-6.32-5.94-6.3.12-12.61-.37-18.9,1.34-3.58,1-7.55.5-11.35.69.41-9.55,2.71-18.81,4.48-28.13.72-3.77.86-7.56,1.48-11.31.82-5.08,2.33-6.43,7.51-6.64a100.24,100.24,0,0,0,16.1-1.5c3.68-.74,7.6-.33,11.41-.26,1.86,0,2.84,1.35,2.88,3.13a31.1,31.1,0,0,1-.27,5.71c-1.64,10-3.45,20-5.06,30a58.57,58.57,0,0,0-.31,7.62C1627.64,1472.23,1627.46,1474.11,1626,1475.61Z" transform="translate(0.05 0.35)"/><path class="ah" d="M1553,1479.39c-.5-1.85-1-3.73-3.43-3.81a36.28,36.28,0,0,0-6.59,0,140.18,140.18,0,0,1-19.63,2.06c-3.18,0-6,1.77-8.51,3.72,3.08-14.58,6.22-29.15,9.18-43.75.51-2.52,1.37-4,4.07-4.38,5.68-.73,11.25-2,17-2.07,4.42,0,8.81-1.15,13.23-1.54,2.78-.25,4.06,1.41,3.54,4.19-2.24,11.85-4.42,23.71-6.81,35.53C1554.42,1472.68,1555.73,1476.47,1553,1479.39Z" transform="translate(0.05 0.35)"/><path class="ai" d="M2065,1464.06c.28,7.32.43,14.64.91,21.94.36,5.6-2.21,9-7.12,11.13-4.42,1.89-8.93,3.35-13.82,3.19-12.07-.4-24.15.06-36.24-1.12-8.84-.87-17.81-.6-26.72-.66a39.49,39.49,0,0,1-15.72-3.48c-5.72-2.49-9.21-6.33-8.83-13.18.41-7.29.19-14.63.24-21.94a49.83,49.83,0,0,1,36.74,0l1.29,16.13c.31,3.76,1,4.68,4.44,4.78q11.43.33,22.87.33c3.43,0,4.14-.88,4.19-4.77.07-5.39,0-10.79,0-16.18C2037.62,1455,2057.91,1457,2065,1464.06Z" transform="translate(0.05 0.35)"/><path class="ah" d="M2065,1464.06c-1.39-.69-2.73-1.87-4.16-2-11.18-.9-22.31-2.79-33.59-1.8-.11-2.22-.33-4.44-.33-6.66,0-7.26-.85-7-7.69-8.26-4.64-.83-9.51-.3-14.28-.53-3.77-.18-4.63-.9-4.7-4.51-.27-13.93-1.51-12.93,11.52-12.88q20,.08,40.09.23c2.22,0,4.46,0,6.67.19,3.18.29,4.46,1.54,4.68,4.89C2063.87,1443.18,2064.4,1453.62,2065,1464.06Z" transform="translate(0.05 0.35)"/><path class="ah" d="M1994.43,1460l-36.73,0q0-18.12-.08-36.25c0-1.9,0-3.81.11-5.71.12-2.14,1.13-3.77,3.41-3.79q14.77-.11,29.56,0c2.27,0,3.33,1.63,3.41,3.78.11,3.18.15,6.36.17,9.54Q1994.37,1443.78,1994.43,1460Z" transform="translate(0.05 0.35)"/><path class="ak" d="M2022.93,1464.34c.12,4.07,1.22,8.17,0,12.22-4.22,2.1-8.69.54-13,.86a53.25,53.25,0,0,1-6.68-.1c-3.72-.21-4.07-.61-4.37-4.68a42.36,42.36,0,0,1-.19-4.77c.27-6.25-1.69-12.58.68-18.76,6.92-1.37,13.88-.35,20.83-.34,1.9,0,2.75,1.39,2.77,3.15C2023,1456.06,2022.93,1460.2,2022.93,1464.34Z" transform="translate(0.05 0.35)"/><path class="d" d="M2023.16,1020.6a4.67,4.67,0,0,1,3.9-1.83l-.11-.13c-.76,1.73-2.4,1.63-3.89,1.87Z" transform="translate(0.05 0.35)"/><path class="d" d="M1956,1062.87a6.77,6.77,0,0,1,1.18-1.26c.68-.43,1.18-.14,1.21.63,0,.12-.49.32-.76.36-.58.09-1.16.09-1.74.13Z" transform="translate(0.05 0.35)"/><path class="d" d="M2023.06,1020.51l-.27.67c.13-.19.25-.39.37-.58Z" transform="translate(0.05 0.35)"/><path class="d" d="M2059.57,897.72c-.73-.34-.88-.84-.29-1.33,1.28-1.07,2.41-2.43,4.29-2.51Z" transform="translate(0.05 0.35)"/><path class="d" d="M2063.37,894.07a2,2,0,0,1,2.12-2.11A2.25,2.25,0,0,1,2063.37,894.07Z" transform="translate(0.05 0.35)"/><path class="d" d="M1961.63,901.65l1,.93c-.24-.05-.59,0-.69-.17a2.65,2.65,0,0,1-.23-.87Z" transform="translate(0.05 0.35)"/><path class="al" d="M1887.42,1418.81c2.67,2.2,3,5,3.77,7.65,2,7.31,4.06,14.61,6,21.94.7,2.57,0,3.67-2.42,3.9a13.54,13.54,0,0,1-2.84.11c-5.2-.63-10.65,1.55-15.62-1.43.05-5.19,2.67-9.65,4.12-14.44C1882.3,1430.53,1883.87,1424.39,1887.42,1418.81Z" transform="translate(0.05 0.35)"/><path class="am" d="M1888.21,1429.65c1.53,6.11,4.46,11.8,4.63,18.14-.42.24-.68.5-1,.54-12.1,1.49-12.37,1.2-8.58-9.77.92-2.66,2.06-5.25,3.22-7.81C1886.72,1430.29,1887.51,1430.09,1888.21,1429.65Z" transform="translate(0.05 0.35)"/><rect class="an" x="2477.2" y="1336.4" width="379" height="211"/><rect class="an" x="2094.2" y="1336.4" width="384" height="211"/><rect class="an" x="1710.2" y="1336.4" width="384" height="211"/><rect class="an" x="1326.2" y="1336.4" width="384" height="211"/><rect class="an" x="943.2" y="1336.4" width="384" height="211"/><rect class="an" x="2477.2" y="1119.4" width="379" height="216"/><rect class="an" x="2094.2" y="1119.4" width="384" height="216"/><rect class="an" x="1710.2" y="1119.4" width="384" height="216"/><rect class="an" x="1326.2" y="1119.4" width="384" height="216"/><rect class="an" x="943.2" y="1119.4" width="384" height="216"/><rect class="an" x="2477.2" y="903.4" width="379" height="216"/><rect class="an" x="2094.2" y="903.4" width="384" height="216"/><rect class="an" x="1710.2" y="903.4" width="384" height="216"/><rect class="an" x="1326.2" y="903.4" width="384" height="216"/><rect class="an" x="943.2" y="903.4" width="384" height="216"/><rect class="an" x="2477.2" y="687.4" width="379" height="216"/><rect class="an" x="2094.2" y="687.4" width="384" height="216"/><rect class="an" x="1710.2" y="687.4" width="384" height="216"/><rect class="an" x="1326.2" y="687.4" width="384" height="216"/><rect class="an" x="943.2" y="687.4" width="384" height="216"/><rect class="an" x="2477.2" y="470.4" width="379" height="216"/><rect class="an" x="1969.2" y="282.4" width="385" height="217"/><rect class="an" x="1585.2" y="276.4" width="384" height="217"/><rect class="an" x="1200.2" y="276.4" width="385" height="217"/><rect class="an" x="812.2" y="260.4" width="384" height="217"/><rect class="an" x="816.2" y="266.4" width="11" height="4"/></svg>