<?xml version="1.0" encoding="utf-8"?>
<!-- Generator: Adobe Illustrator 26.0.2, SVG Export Plug-In . SVG Version: 6.00 Build 0)  -->
<svg version="1.1" id="Layer_1" xmlns="http://www.w3.org/2000/svg" xmlns:xlink="http://www.w3.org/1999/xlink" x="0px" y="0px"
	 viewBox="0 0 1424 1401.6" style="enable-background:new 0 0 1424 1401.6;" xml:space="preserve">
<style type="text/css">
	.st0{display:none;}
	.st1{display:inline;}
	.st2{fill:none;}
</style>
<g>
	<g id="XMLID_00000004544596157984632570000013718110747221992379_">
		<g>
			
				<image style="overflow:visible;" width="2441" height="2790" xlink:href="40E51D9F26EA54AB.png"  transform="matrix(1 0 0 1 -2059.6353 -1189.4478)">
			</image>
		</g>
	</g>
	<g id="XMLID_00000132784550130485438530000014390812929036096931_">
		<g>
			
				<image style="overflow:visible;" width="2469" height="2416" xlink:href="40E51D9F26EA54A9.png"  transform="matrix(1 0 0 1 -711.9468 -793.0735)">
			</image>
		</g>
	</g>
	<g id="XMLID_00000040534157253167726260000012219603851723057833_">
		<g>
			
				<image style="overflow:visible;" width="3674" height="2785" xlink:href="40E51D9F26EA54AF.png"  transform="matrix(1 0 0 1 -1990.1184 -1175.3046)">
			</image>
		</g>
	</g>
	<g id="XMLID_00000139269428211483278210000007623565160538691261_">
		<g>
			
				<image style="overflow:visible;" width="1667" height="999" xlink:href="40E51D9F26EA54A8.png"  transform="matrix(1 0 0 1 -1291.2786 -87.6349)">
			</image>
		</g>
	</g>
	<g id="XMLID_00000120525697624200256340000016726168150751171728_">
		<g>
			
				<image style="overflow:visible;" width="1168" height="568" xlink:href="40E51D9F26EA54A6.png"  transform="matrix(1 0 0 1 -773.7213 -1052.7795)">
			</image>
		</g>
	</g>
	<g id="XMLID_00000025417017377359711550000000866210071595305347_">
		<g>
			
				<image style="overflow:visible;" width="602" height="1041" xlink:href="40E51D9F26EA54A7.png"  transform="matrix(1 0 0 1 399.5634 -135.4169)">
			</image>
		</g>
	</g>
	<g id="XMLID_00000098217174719387310320000012320864308053829526_">
		<g>
			
				<image style="overflow:visible;" width="1507" height="638" xlink:href="40E51D9F26EA54B7.png"  transform="matrix(1 0 0 1 -975.1332 -676.0925)">
			</image>
		</g>
	</g>
	<g id="XMLID_00000165211872879375184300000011792783788761122704_">
		<g>
			
				<image style="overflow:visible;" width="512" height="462" xlink:href="40E51D9F26EA54B9.png"  transform="matrix(0.8496 0 0 0.8496 -486.8745 -428.2541)">
			</image>
		</g>
	</g>
	<g id="XMLID_00000018921017959003892630000005399679939561511070_">
		<g>
			
				<image style="overflow:visible;" width="475" height="922" xlink:href="40E51D9F26EA54BB.png"  transform="matrix(1 0 0 1 355.3051 -61.0183)">
			</image>
		</g>
	</g>
	<g id="XMLID_00000093139288747827659590000012405434283778689706_">
		<g>
			
				<image style="overflow:visible;" width="708" height="358" xlink:href="611D48009FDE3CC8.png"  transform="matrix(1 0 0 1 301.4459 974.6683)">
			</image>
		</g>
	</g>
	<g id="XMLID_00000037657751829956591060000018256381742217496727_">
		<g>
			
				<image style="overflow:visible;" width="901" height="331" xlink:href="611D48009FDE3CCF.png"  transform="matrix(1 0 0 1 -945.7416 973.5792)">
			</image>
		</g>
	</g>
	<g id="XMLID_00000181069441444817723760000015792743843974459269_">
		<g>
			
				<image style="overflow:visible;" width="512" height="446" xlink:href="611D48009FDE3CC9.png"  transform="matrix(0.8809 0 0 0.8809 958.6806 976.2107)">
			</image>
		</g>
	</g>
	<g id="XMLID_00000139264424612912073050000002582276489830691514_">
		<g>
			
				<image style="overflow:visible;" width="512" height="452" xlink:href="611D48009FDE3CCB.png"  transform="matrix(0.875 0 0 0.875 -1686.7961 975.3275)">
			</image>
		</g>
	</g>
	<g id="XMLID_00000027600014073039843340000011114630946503141799_">
		<g>
			
				<image style="overflow:visible;" width="300" height="971" xlink:href="611D48009FDE3CD6.png"  transform="matrix(1 0 0 1 -1326.3469 -82.6945)">
			</image>
		</g>
	</g>
	<g id="XMLID_00000008143574405376238360000004618107037624258230_">
		<g>
			
				<image style="overflow:visible;" width="438" height="1056" xlink:href="611D48009FDE3CD7.png"  transform="matrix(1 0 0 1 610.9225 -147.6469)">
			</image>
		</g>
	</g>
	<g id="XMLID_00000159466146838074584140000012369946377212575396_">
		<g>
			
				<image style="overflow:visible;" width="512" height="452" xlink:href="611D48009FDE3CD8.png"  transform="matrix(0.7754 0 0 0.7754 -1305.9048 977.3912)">
			</image>
		</g>
	</g>
	<g id="XMLID_00000070103132978962966790000007478241946938178722_">
		<g>
			
				<image style="overflow:visible;" width="512" height="211" xlink:href="611D48009FDE3CDB.png"  transform="matrix(0.8418 0 0 0.8418 -436.0403 167.7867)">
			</image>
		</g>
	</g>
	<g id="XMLID_00000049206421050873261540000018415272355287168189_">
		<g>
			
				<image style="overflow:visible;" width="512" height="474" xlink:href="611D48009FDE3CD9.png"  transform="matrix(0.6523 0 0 0.6523 -51.667 977.5081)">
			</image>
		</g>
	</g>
	<g id="XMLID_00000057861504005271607530000013242065017173990064_">
		<g>
			
				<image style="overflow:visible;" width="512" height="259" xlink:href="611D48009FDE3CDF.png"  transform="matrix(0.9707 0 0 0.9707 -244.5377 193.8387)">
			</image>
		</g>
	</g>
	<g id="XMLID_00000040539388897331146940000010664274755299544197_">
		<g>
			
				<image style="overflow:visible;" width="512" height="484" xlink:href="611D48009FDE3CF3.png"  transform="matrix(0.4238 0 0 0.4238 75.0284 -24.7612)">
			</image>
		</g>
	</g>
	<g id="XMLID_00000018221251326758489790000004447902586669588367_">
		<g>
			
				<image style="overflow:visible;" width="2219" height="58" xlink:href="611D48009FDE3CFD.png"  transform="matrix(1 0 0 1 -1247.2722 1337.0814)">
			</image>
		</g>
	</g>
	<g id="XMLID_00000056386342053868582180000011842018641456198824_">
		<g>
			
				<image style="overflow:visible;" width="460" height="512" xlink:href="611D48009FDE3CFF.png"  transform="matrix(0.4219 0 0 0.4219 8.0927 -42.8454)">
			</image>
		</g>
	</g>
	<g id="XMLID_00000177455637960435827920000002398977794910686868_">
		<g>
			
				<image style="overflow:visible;" width="326" height="512" xlink:href="611D48009FDE3CF2.png"  transform="matrix(0.4453 0 0 0.4453 -618.6563 -53.3688)">
			</image>
		</g>
	</g>
	<g id="XMLID_00000097498851491698563150000006966821280549079940_">
		<g>
			
				<image style="overflow:visible;" width="343" height="512" xlink:href="611D48009FDE3CF1.png"  transform="matrix(0.4727 0 0 0.4727 -591.3171 -66.3193)">
			</image>
		</g>
	</g>
	<g id="XMLID_00000080894004431924111300000005999415861539681686_">
		<g>
			
				<image style="overflow:visible;" width="339" height="512" xlink:href="611D48009FDE3CF5.png"  transform="matrix(0.3691 0 0 0.3691 -665.1073 -13.2348)">
			</image>
		</g>
	</g>
	<g id="XMLID_00000051375826752084870230000010556085877726770332_">
		<g>
			
				<image style="overflow:visible;" width="448" height="512" xlink:href="611D48009FDE3CF7.png"  transform="matrix(0.418 0 0 0.418 -33.4203 -55.0249)">
			</image>
		</g>
	</g>
	<g id="XMLID_00000140693999650812560230000012169755616275531155_">
		<g>
			
				<image style="overflow:visible;" width="512" height="308" xlink:href="611D48009FDE3CF0.png"  transform="matrix(0.3711 0 0 0.3711 -267.5431 -402.5221)">
			</image>
		</g>
	</g>
	<g id="XMLID_00000121265884091257948470000008942588006110833848_">
		<g>
			
				<image style="overflow:visible;" width="141" height="512" xlink:href="611D48009FDE3CCE.png"  transform="matrix(0.6133 0 0 0.6133 468.7014 -358.4203)">
			</image>
		</g>
	</g>
	<g id="XMLID_00000011029439609426290370000014208558224389944203_">
		<g>
			
				<image style="overflow:visible;" width="512" height="349" xlink:href="611D48009FDE3CED.png"  transform="matrix(0.2383 0 0 0.2383 -246.3487 -404.0582)">
			</image>
		</g>
	</g>
	<g id="XMLID_00000144303399358242948970000000205515386884638373_">
		<g>
			
				<image style="overflow:visible;" width="512" height="385" xlink:href="611D48009FDE3D12.png"  transform="matrix(0.2832 0 0 0.2832 -456.2323 -466.1965)">
			</image>
		</g>
	</g>
	<g id="XMLID_00000129893716350792624500000017679178487662723751_">
		<g>
			
				<image style="overflow:visible;" width="347" height="512" xlink:href="611D48009FDE3D2D.png"  transform="matrix(0.2656 0 0 0.2656 -490.8272 -44.7857)">
			</image>
		</g>
	</g>
	<g id="XMLID_00000040576612511889189020000011049390209941354124_">
		<g>
			
				<image style="overflow:visible;" width="396" height="512" xlink:href="611D48009FDE3D2E.png"  transform="matrix(0.2656 0 0 0.2656 -62.3674 -38.0539)">
			</image>
		</g>
	</g>
	<g id="XMLID_00000021817226114129409470000001605232850895811245_">
		<g>
			
				<image style="overflow:visible;" width="512" height="411" xlink:href="611D48009FDE3D2C.png"  transform="matrix(0.373 0 0 0.373 78.6179 -32.3872)">
			</image>
		</g>
	</g>
	<g id="XMLID_00000158712655771671791490000008396358600044563341_">
		<g>
			
				<image style="overflow:visible;" width="356" height="512" xlink:href="611D48009FDE3D32.png"  transform="matrix(0.3066 0 0 0.3066 -642.4523 -0.3649)">
			</image>
		</g>
	</g>
	<g id="XMLID_00000181067252422222441720000015442656421899317647_">
		<g>
			
				<image style="overflow:visible;" width="478" height="512" xlink:href="611D48009FDE3D35.png"  transform="matrix(0.2324 0 0 0.2324 -676.5491 -150.3678)">
			</image>
		</g>
	</g>
	<g id="XMLID_00000173864509095611412650000011385031930674818689_">
		<g>
			
				<image style="overflow:visible;" width="512" height="394" xlink:href="611D48009FDE3D36.png"  transform="matrix(0.1777 0 0 0.1777 -647.4557 -131.5643)">
			</image>
		</g>
	</g>
	<g id="XMLID_00000130614623577677092820000008365841754080853657_">
		<g>
			
				<image style="overflow:visible;" width="486" height="512" xlink:href="611D48009FDE3D34.png"  transform="matrix(0.1914 0 0 0.1914 716.9378 810.0986)">
			</image>
		</g>
	</g>
	<g id="XMLID_00000070828631211665631910000010832531899435101111_" class="st0">
		<g class="st1">
			
				<image style="overflow:visible;" width="473" height="512" xlink:href="611D48009FDE3D33.png"  transform="matrix(0.127 0 0 0.127 217.6023 -89.5682)">
			</image>
		</g>
	</g>
	<g id="XMLID_00000139992120303565485390000009856561848835194807_">
		<g>
			
				<image style="overflow:visible;" width="512" height="313" xlink:href="611D48009FDE3D3D.png"  transform="matrix(0.1758 0 0 0.1758 -536.7354 855.3958)">
			</image>
		</g>
	</g>
	<g id="XMLID_00000052783072242324174920000011286426110515034277_">
		<g>
			
				<image style="overflow:visible;" width="512" height="259" xlink:href="611D48009FDE3D19.png"  transform="matrix(0.2285 0 0 0.2285 -257.7558 850.488)">
			</image>
		</g>
	</g>
	<g id="XMLID_00000154428007194845806920000012004880633107355827_">
		<g>
			
				<image style="overflow:visible;" width="512" height="58" xlink:href="611D48009FDE3D1B.png"  transform="matrix(0.3633 0 0 0.3633 -1431.6393 1394.1115)">
			</image>
		</g>
	</g>
	<g id="XMLID_00000067920291912861720610000003506135594675939984_">
		<g>
			
				<image style="overflow:visible;" width="512" height="60" xlink:href="611D48009FDE3D18.png"  transform="matrix(0.3008 0 0 0.3008 970.9108 1391.1161)">
			</image>
		</g>
	</g>
	<g id="XMLID_00000098179163205383326220000008246222266029690277_">
		<g>
			
				<image style="overflow:visible;" width="434" height="512" xlink:href="611D48009FDE3D1F.png"  transform="matrix(0.127 0 0 0.127 -667.4028 -13.0378)">
			</image>
		</g>
	</g>
	<g id="XMLID_00000176043697624049239850000012614293628844724658_">
		<g>
			
				<image style="overflow:visible;" width="427" height="512" xlink:href="611D48009FDE3D1A.png"  transform="matrix(7.031250e-02 0 0 7.031250e-02 294.4492 98.6539)">
			</image>
		</g>
	</g>
	<g id="XMLID_00000070117575768456579870000008125036888398458292_">
		<g>
			
				<image style="overflow:visible;" width="512" height="488" xlink:href="611D48009FDE3D06.png"  transform="matrix(4.101562e-02 0 0 4.101562e-02 -413.8787 135.8534)">
			</image>
		</g>
	</g>
	<g id="XMLID_00000059293284891597953600000016358483299051108023_">
		<g>
			
				<image style="overflow:visible;" width="512" height="79" xlink:href="611D48009FDE3D07.png"  transform="matrix(5.078125e-02 0 0 5.078125e-02 -1457.4136 1414.1278)">
			</image>
		</g>
	</g>
	<g id="XMLID_00000175285872749266726230000000348589242020557484_">
		<g>
			
				<image style="overflow:visible;" width="403" height="512" xlink:href="611D48009FDE3D17.png"  transform="matrix(2.734375e-02 0 0 2.734375e-02 -667.8065 10.6036)">
			</image>
		</g>
	</g>
	<g id="XMLID_00000146480475384303076760000011935095803218352779_">
		<g>
			
				<image style="overflow:visible;" width="512" height="117" xlink:href="611D48009FDE3D09.png"  transform="matrix(4.296875e-02 0 0 4.296875e-02 784.4906 1204.1349)">
			</image>
		</g>
	</g>
	<g id="XMLID_00000023262625582472771760000002548459870913965238_">
		<g>
			
				<image style="overflow:visible;" width="512" height="112" xlink:href="611D48009FDE3D0B.png"  transform="matrix(4.492188e-02 0 0 4.492188e-02 1338.0371 1365.2048)">
			</image>
		</g>
	</g>
	<g id="XMLID_00000007418051560545964930000009430736407915885697_">
		<g>
			
				<image style="overflow:visible;" width="308" height="512" xlink:href="611D48009FDE3D64.png"  transform="matrix(1.953125e-02 0 0 1.953125e-02 -540.6868 163.3609)">
			</image>
		</g>
	</g>
	<g id="XMLID_00000040567122204961695750000009269123265889005734_">
		<g>
			
				<image style="overflow:visible;" width="342" height="512" xlink:href="611D48009FDE3D63.png"  transform="matrix(1.171875e-02 0 0 1.171875e-02 432.812 -4.5327)">
			</image>
		</g>
	</g>
	<g id="XMLID_00000152251186250362904200000010926122644309569158_">
		<g>
			
				<image style="overflow:visible;" width="308" height="512" xlink:href="611D48009FDE3D6C.png"  transform="matrix(1.953125e-02 0 0 1.953125e-02 463.6444 -45.5248)">
			</image>
		</g>
	</g>
	<g id="XMLID_00000018195051640786582260000011822170990558400944_" class="st0">
		<g class="st1">
			
				<image style="overflow:visible;" width="512" height="293" xlink:href="611D48009FDE3D6F.png"  transform="matrix(1.367187e-02 0 0 1.367187e-02 -545.2941 -85.8816)">
			</image>
		</g>
	</g>
	<g id="XMLID_00000031205977978205846280000010030361350062276255_" class="st0">
		<g class="st1">
			
				<image style="overflow:visible;" width="512" height="233" xlink:href="611D48009FDE3D6D.png"  transform="matrix(2.148438e-02 0 0 2.148438e-02 -571.5482 -98.4993)">
			</image>
		</g>
	</g>
	<g id="XMLID_00000018915543651142458090000001956426067540204675_">
		<g>
			
				<image style="overflow:visible;" width="342" height="512" xlink:href="611D48009FDE3D62.png"  transform="matrix(1.757812e-02 0 0 1.757812e-02 480.2323 -366.0659)">
			</image>
		</g>
	</g>
	<g id="XMLID_00000070836146715784086940000017487315489569935039_">
		<g>
			
				<image style="overflow:visible;" width="512" height="512" xlink:href="611D48009FDE3D65.png"  transform="matrix(3.906250e-03 0 0 3.906250e-03 -136.0538 845.4359)">
			</image>
		</g>
	</g>
	<g id="XMLID_00000088099742047633864920000008420284143727307669_">
		<g>
			
				<image style="overflow:visible;" width="512" height="427" xlink:href="611D48009FDE3D67.png"  transform="matrix(1.171875e-02 0 0 1.171875e-02 -141.178 846.6116)">
			</image>
		</g>
	</g>
	<g id="XMLID_00000062173205297370275180000008381785051118185865_">
		<g>
			
				<image style="overflow:visible;" width="512" height="384" xlink:href="611D48009FDE3D60.png"  transform="matrix(7.812500e-03 0 0 7.812500e-03 322.3734 96.3503)">
			</image>
		</g>
	</g>
	<g id="XMLID_00000071547396282896640450000016067028674030895002_">
		<g>
			
				<image style="overflow:visible;" width="512" height="320" xlink:href="611D48009FDE3D61.png"  transform="matrix(1.562500e-02 0 0 1.562500e-02 -1027.519 -86.5157)">
			</image>
		</g>
	</g>
	<g id="XMLID_00000112597921183643443280000002174075118622318465_">
		<g>
			
				<image style="overflow:visible;" width="512" height="427" xlink:href="611D48009FDE3D47.png"  transform="matrix(1.171875e-02 0 0 1.171875e-02 -778.2119 -485.7571)">
			</image>
		</g>
	</g>
	<g id="XMLID_00000016060467446323366280000008870958250017509536_">
		<g>
			
				<image style="overflow:visible;" width="512" height="256" xlink:href="611D48009FDE3D41.png"  transform="matrix(1.562500e-02 0 0 1.562500e-02 760.0067 309.0879)">
			</image>
		</g>
	</g>
	<g id="XMLID_00000040558549904726271850000002566939903056245948_" class="st0">
		<g class="st1">
			
				<image style="overflow:visible;" width="512" height="191" xlink:href="611D48009FDE3D43.png"  transform="matrix(0.6445 0 0 0.6445 659.8232 1150.8815)">
			</image>
		</g>
	</g>
	<g id="XMLID_00000050625290756238100940000010825537841757199495_" class="st0">
		<g class="st1">
			
				<image style="overflow:visible;" width="512" height="167" xlink:href="611D48009FDE3D3E.png"  transform="matrix(0.6797 0 0 0.6797 310.7676 1224.9908)">
			</image>
		</g>
	</g>
	<g id="XMLID_00000182526097772333755010000016778207144652425144_" class="st0">
		<g class="st1">
			
				<image style="overflow:visible;" width="512" height="206" xlink:href="611D48009FDE3D3F.png"  transform="matrix(0.541 0 0 0.541 340.2408 1134.9054)">
			</image>
		</g>
	</g>
	<g id="XMLID_00000077301019681080406090000014141512261555663007_" class="st0">
		<g class="st1">
			
				<image style="overflow:visible;" width="512" height="404" xlink:href="611D48009FDE3DC1.png"  transform="matrix(0.248 0 0 0.248 880.719 1224.1742)">
			</image>
		</g>
	</g>
	<g id="XMLID_00000110452129632527274190000002382234076640087436_" class="st0">
		<g class="st1">
			
				<image style="overflow:visible;" width="512" height="408" xlink:href="611D48009FDE3DC3.png"  transform="matrix(0.2383 0 0 0.2383 673.6005 1210.5842)">
			</image>
		</g>
	</g>
	<g id="XMLID_00000005250454355434311480000008067300351268101810_">
		<g>
			
				<image style="overflow:visible;" width="387" height="512" xlink:href="611D48009FDE3DC6.png"  transform="matrix(8.789062e-02 0 0 8.789062e-02 452.1219 1135.942)">
			</image>
		</g>
	</g>
	<g id="XMLID_00000050636919131577740650000006554523407539557771_" class="st0">
		<g class="st1">
			
				<image style="overflow:visible;" width="512" height="207" xlink:href="611D48009FDE3DC7.png"  transform="matrix(0.543 0 0 0.543 -373.2298 1088.9801)">
			</image>
		</g>
	</g>
	<g id="XMLID_00000111189583622578222540000009376169526421327523_" class="st0">
		<g class="st1">
			
				<image style="overflow:visible;" width="512" height="140" xlink:href="611D48009FDE3DC2.png"  transform="matrix(0.6895 0 0 0.6895 -413.6584 1184.1057)">
			</image>
		</g>
	</g>
	<g id="XMLID_00000130609366315514563750000004633660916699124412_" class="st0">
		<g class="st1">
			
				<image style="overflow:visible;" width="512" height="204" xlink:href="611D48009FDE3DE6.png"  transform="matrix(0.4961 0 0 0.4961 -941.5116 1197.6342)">
			</image>
		</g>
	</g>
	<g id="XMLID_00000148634367694875197000000015085033313678249401_" class="st0">
		<g class="st1">
			
				<image style="overflow:visible;" width="512" height="204" xlink:href="611D48009FDE3DE9.png"  transform="matrix(0.4902 0 0 0.4902 -677.7428 1185.2178)">
			</image>
		</g>
	</g>
	<g id="XMLID_00000137092481842508196550000011555012155894997688_" class="st0">
		<g class="st1">
			
				<image style="overflow:visible;" width="512" height="478" xlink:href="611D48009FDE3DEA.png"  transform="matrix(0.2344 0 0 0.2344 -923.049 1105.8807)">
			</image>
		</g>
	</g>
	<g id="XMLID_00000183942014393850183050000004089302702892005821_" class="st0">
		<g class="st1">
			
				<image style="overflow:visible;" width="495" height="512" xlink:href="611D48009FDE3DE8.png"  transform="matrix(0.2324 0 0 0.2324 -664.9069 1094.7097)">
			</image>
		</g>
	</g>
	<g id="XMLID_00000003799442570933101020000014430248598695411612_">
		<g>
			
				<image style="overflow:visible;" width="512" height="206" xlink:href="611D48009FDE3DEE.png"  transform="matrix(0.6562 0 0 0.6562 1006.9039 1139.306)">
			</image>
		</g>
	</g>
	<g id="XMLID_00000106837520292967843250000012646606428502733738_">
		<g>
			
				<image style="overflow:visible;" width="512" height="338" xlink:href="611D48009FDE3DEB.png"  transform="matrix(0.3262 0 0 0.3262 1201.7784 1255.7792)">
			</image>
		</g>
	</g>
	<g id="XMLID_00000112621357476216677960000003827804148739242662_">
		<g>
			
				<image style="overflow:visible;" width="512" height="422" xlink:href="611D48009FDE3DF6.png"  transform="matrix(0.2422 0 0 0.2422 1030.0609 1237.7245)">
			</image>
		</g>
	</g>
	<g id="XMLID_00000054981432853214429090000015169840580406350759_" class="st0">
		<g class="st1">
			
				<image style="overflow:visible;" width="512" height="203" xlink:href="611D48009FDE3DF7.png"  transform="matrix(0.6816 0 0 0.6816 -1642.437 1141.3333)">
			</image>
		</g>
	</g>
	<g id="XMLID_00000093870729617240709160000005287915044321659811_" class="st0">
		<g class="st1">
			
				<image style="overflow:visible;" width="512" height="411" xlink:href="611D48009FDE3DE7.png"  transform="matrix(0.2461 0 0 0.2461 -1445.887 1237.7827)">
			</image>
		</g>
	</g>
	<g id="XMLID_00000115480422785581410730000010816229297117126330_" class="st0">
		<g class="st1">
			
				<image style="overflow:visible;" width="512" height="413" xlink:href="611D48009FDE3DF9.png"  transform="matrix(0.252 0 0 0.252 -1665.2091 1261.1019)">
			</image>
		</g>
	</g>
	<g id="XMLID_00000142872877177266420950000013509571575462327729_" class="st0">
		<g class="st1">
			
				<image style="overflow:visible;" width="256" height="512" xlink:href="611D48009FDE3D95.png"  transform="matrix(1.953125e-02 0 0 1.953125e-02 -1534.3099 1261.671)">
			</image>
		</g>
	</g>
	<g id="XMLID_00000012434183156791213980000013234150789751381166_" class="st0">
		<g class="st1">
			
				<image style="overflow:visible;" width="512" height="180" xlink:href="611D48009FDE3D97.png"  transform="matrix(0.6465 0 0 0.6465 -1292.4951 1206.234)">
			</image>
		</g>
	</g>
	<g id="XMLID_00000163794766371107798140000007477166151838726564_" class="st0">
		<g class="st1">
			
				<image style="overflow:visible;" width="512" height="478" xlink:href="611D48009FDE3D94.png"  transform="matrix(0.2344 0 0 0.2344 -1065.844 1113.8799)">
			</image>
		</g>
	</g>
	<g id="XMLID_00000173118673253630338880000000384178377660572034_" class="st0">
		<g class="st1">
			
				<image style="overflow:visible;" width="512" height="432" xlink:href="611D48009FDE3D9B.png"  transform="matrix(0.25 0 0 0.25 -1276.4594 1126.6412)">
			</image>
		</g>
	</g>
	<g id="XMLID_00000052067985313813100810000009859665973118699954_" class="st0">
		<g class="st1">
			
				<image style="overflow:visible;" width="512" height="163" xlink:href="611D48009FDE3D9D.png"  transform="matrix(0.6211 0 0 0.6211 -41.0629 1183.6907)">
			</image>
		</g>
	</g>
	<g id="XMLID_00000032643756708237122330000000921366961798019747_" class="st0">
		<g class="st1">
			
				<image style="overflow:visible;" width="512" height="227" xlink:href="611D48009FDE3D9F.png"  transform="matrix(0.3613 0 0 0.3613 83.9368 1119.6333)">
			</image>
		</g>
	</g>
	<g id="XMLID_00000064354043579186324590000011045494450549011363_" class="st0">
		<g class="st1">
			
				<image style="overflow:visible;" width="512" height="475" xlink:href="611D48009FDE3D9C.png"  transform="matrix(0.2148 0 0 0.2148 -39.1986 1093.3901)">
			</image>
		</g>
	</g>
	<g id="XMLID_00000165916618634718355840000005157991144028597950_">
		<g>
			
				<image style="overflow:visible;" width="512" height="440" xlink:href="611D48009FDE3D96.png"  transform="matrix(0.1523 0 0 0.1523 75.1198 1163.9288)">
			</image>
		</g>
	</g>
	<g id="XMLID_00000175312316230838575770000001355508786579808651_">
		<g>
			
				<image style="overflow:visible;" width="512" height="233" xlink:href="611D48009FDE3D91.png"  transform="matrix(2.148438e-02 0 0 2.148438e-02 150.6158 246.4133)">
			</image>
		</g>
	</g>
	<g id="XMLID_00000050628741725741073270000010184763406283381175_">
		<g>
			
				<image style="overflow:visible;" width="512" height="293" xlink:href="611D48009FDE3D92.png"  transform="matrix(1.367187e-02 0 0 1.367187e-02 -38.7023 338.043)">
			</image>
		</g>
	</g>
	<g id="XMLID_00000180354273117813382730000017652376764331148171_">
		<g>
			
				<image style="overflow:visible;" width="512" height="512" xlink:href="611D48009FDE3DB0.png"  transform="matrix(3.906250e-03 0 0 3.906250e-03 149.0662 250.4866)">
			</image>
		</g>
	</g>
	<g id="XMLID_00000129174531352203745670000000130779112459251601_">
		<g>
			
				<image style="overflow:visible;" width="512" height="355" xlink:href="611D48009FDE3DB7.png"  transform="matrix(2.539062e-02 0 0 2.539062e-02 251.5822 -20.9295)">
			</image>
		</g>
	</g>
	<g id="XMLID_00000026144243062805183830000013445970193144038053_">
		<g>
			
				<image style="overflow:visible;" width="512" height="366" xlink:href="611D48009FDE3DB1.png"  transform="matrix(1.367187e-02 0 0 1.367187e-02 263.3212 -24.817)">
			</image>
		</g>
	</g>
	<g id="XMLID_00000008109485919440806340000004207375208386137511_">
		<g>
			
				<image style="overflow:visible;" width="512" height="512" xlink:href="611D48009FDE3DB3.png"  transform="matrix(5.859375e-03 0 0 5.859375e-03 -22.9992 -4.7715)">
			</image>
		</g>
	</g>
	<g id="XMLID_00000078037976938773171860000015139670074538502548_">
		<g>
			
				<image style="overflow:visible;" width="381" height="512" xlink:href="611D48009FDE3D8E.png"  transform="matrix(0.1445 0 0 0.1445 -259.3634 1103.9064)">
			</image>
		</g>
	</g>
	<g id="XMLID_00000160885368017707994870000010980487763245564581_">
		<g>
			
				<image style="overflow:visible;" width="393" height="512" xlink:href="611D48009FDE3D8F.png"  transform="matrix(8.398438e-02 0 0 8.398438e-02 -248.8614 1126.8035)">
			</image>
		</g>
	</g>
</g>
<rect x="1647" y="1659.4" class="st2" width="11" height="4"/>
</svg>
