<?xml version="1.0" encoding="UTF-8"?><svg id="a" xmlns="http://www.w3.org/2000/svg" viewBox="0 0 802 440"><defs><style>.b{fill:#fff;}</style></defs><g><rect x=".5" y=".5" width="801" height="439"/><path d="M801,1V439H1V1H801m1-1H0V440H802V0h0Z"/></g><g><rect class="b" x="21.5" y="18.5" width="759" height="385"/><path d="M780,19V403H22V19H780m1-1H21V404H781V18h0Z"/></g><g><circle class="b" cx="401" cy="420" r="9.5"/><path d="M401,411c5,0,9,4,9,9s-4,9-9,9-9-4-9-9,4-9,9-9m0-1c-5.5,0-10,4.5-10,10s4.5,10,10,10,10-4.5,10-10-4.5-10-10-10h0Z"/></g></svg>